<svg width="132" height="400" viewBox="0 0 132 400" fill="none" xmlns="http://www.w3.org/2000/svg">
<g opacity="0.5">
<rect y="207.224" width="2.83607" height="2.84073" fill="black"/>
<rect x="18.9067" y="207.224" width="2.83607" height="2.84073" fill="black"/>
<rect x="37.8145" y="207.224" width="2.83607" height="2.84073" fill="black"/>
<rect x="56.7217" y="207.224" width="2.83607" height="2.84073" fill="black"/>
<rect x="75.6284" y="207.224" width="2.83607" height="2.84073" fill="black"/>
<rect x="94.5361" y="207.224" width="2.83607" height="2.84073" fill="black"/>
<rect x="113.443" y="207.224" width="2.83607" height="2.84073" fill="black"/>
<rect y="226.162" width="2.83607" height="2.84073" fill="black"/>
<rect x="18.9067" y="226.162" width="2.83607" height="2.84073" fill="black"/>
<rect x="37.8145" y="226.162" width="2.83607" height="2.84073" fill="black"/>
<rect x="56.7217" y="226.162" width="2.83607" height="2.84073" fill="black"/>
<rect x="75.6284" y="226.162" width="2.83607" height="2.84073" fill="black"/>
<rect x="94.5361" y="226.162" width="2.83607" height="2.84073" fill="black"/>
<rect x="113.443" y="226.162" width="2.83607" height="2.84073" fill="black"/>
<rect y="245.1" width="2.83607" height="2.84073" fill="black"/>
<rect x="18.9067" y="245.1" width="2.83607" height="2.84073" fill="black"/>
<rect x="37.8145" y="245.1" width="2.83607" height="2.84073" fill="black"/>
<rect x="56.7217" y="245.1" width="2.83607" height="2.84073" fill="black"/>
<rect x="75.6284" y="245.1" width="2.83607" height="2.84073" fill="black"/>
<rect x="94.5361" y="245.1" width="2.83607" height="2.84073" fill="black"/>
<rect x="113.443" y="245.1" width="2.83607" height="2.84073" fill="black"/>
<rect y="264.039" width="2.83607" height="2.84073" fill="black"/>
<rect x="18.9067" y="264.039" width="2.83607" height="2.84073" fill="black"/>
<rect x="37.8145" y="264.039" width="2.83607" height="2.84073" fill="black"/>
<rect x="56.7217" y="264.039" width="2.83607" height="2.84073" fill="black"/>
<rect x="75.6284" y="264.039" width="2.83607" height="2.84073" fill="black"/>
<rect x="94.5361" y="264.039" width="2.83607" height="2.84073" fill="black"/>
<rect x="113.443" y="264.039" width="2.83607" height="2.84073" fill="black"/>
<rect y="282.977" width="2.83607" height="2.84073" fill="black"/>
<rect x="18.9067" y="282.977" width="2.83607" height="2.84073" fill="black"/>
<rect x="37.8145" y="282.977" width="2.83607" height="2.84073" fill="black"/>
<rect x="56.7217" y="282.977" width="2.83607" height="2.84073" fill="black"/>
<rect x="75.6284" y="282.977" width="2.83607" height="2.84073" fill="black"/>
<rect x="94.5361" y="282.977" width="2.83607" height="2.84073" fill="black"/>
<rect x="113.443" y="282.977" width="2.83607" height="2.84073" fill="black"/>
<rect y="301.915" width="2.83607" height="2.84073" fill="black"/>
<rect x="18.9067" y="301.915" width="2.83607" height="2.84073" fill="black"/>
<rect x="37.8145" y="301.915" width="2.83607" height="2.84073" fill="black"/>
<rect x="56.7217" y="301.915" width="2.83607" height="2.84073" fill="black"/>
<rect x="75.6284" y="301.915" width="2.83607" height="2.84073" fill="black"/>
<rect x="94.5361" y="301.915" width="2.83607" height="2.84073" fill="black"/>
<rect x="113.443" y="301.915" width="2.83607" height="2.84073" fill="black"/>
<rect y="320.853" width="2.83607" height="2.84073" fill="black"/>
<rect x="18.9067" y="320.853" width="2.83607" height="2.84073" fill="black"/>
<rect x="37.8145" y="320.853" width="2.83607" height="2.84073" fill="black"/>
<rect x="56.7217" y="320.853" width="2.83607" height="2.84073" fill="black"/>
<rect x="75.6284" y="320.853" width="2.83607" height="2.84073" fill="black"/>
<rect x="94.5361" y="320.853" width="2.83607" height="2.84073" fill="black"/>
<rect x="113.443" y="320.853" width="2.83607" height="2.84073" fill="black"/>
<rect y="339.791" width="2.83607" height="2.84073" fill="black"/>
<rect x="18.9067" y="339.792" width="2.83607" height="2.84073" fill="black"/>
<rect x="37.8145" y="339.792" width="2.83607" height="2.84073" fill="black"/>
<rect x="56.7217" y="339.792" width="2.83607" height="2.84073" fill="black"/>
<rect x="75.6284" y="339.792" width="2.83607" height="2.84073" fill="black"/>
<rect x="94.5361" y="339.792" width="2.83607" height="2.84073" fill="black"/>
<rect x="113.443" y="339.792" width="2.83607" height="2.84073" fill="black"/>
<rect y="358.729" width="2.83607" height="2.84073" fill="black"/>
<rect x="18.9067" y="358.729" width="2.83607" height="2.84073" fill="black"/>
<rect x="37.8145" y="358.729" width="2.83607" height="2.84073" fill="black"/>
<rect x="56.7217" y="358.729" width="2.83607" height="2.84073" fill="black"/>
<rect x="75.6284" y="358.729" width="2.83607" height="2.84073" fill="black"/>
<rect x="94.5361" y="358.729" width="2.83607" height="2.84073" fill="black"/>
<rect x="113.443" y="358.729" width="2.83607" height="2.84073" fill="black"/>
<rect y="377.667" width="2.83607" height="2.84073" fill="black"/>
<rect x="18.9067" y="377.667" width="2.83607" height="2.84073" fill="black"/>
<rect x="37.8145" y="377.667" width="2.83607" height="2.84073" fill="black"/>
<rect x="56.7217" y="377.667" width="2.83607" height="2.84073" fill="black"/>
<rect x="75.6284" y="377.667" width="2.83607" height="2.84073" fill="black"/>
<rect x="94.5361" y="377.667" width="2.83607" height="2.84073" fill="black"/>
<rect x="113.443" y="377.667" width="2.83607" height="2.84073" fill="black"/>
<rect y="396.606" width="2.83607" height="2.84073" fill="black"/>
<rect x="18.9067" y="396.607" width="2.83607" height="2.84073" fill="black"/>
<rect x="37.8145" y="396.607" width="2.83607" height="2.84073" fill="black"/>
<rect x="56.7217" y="396.607" width="2.83607" height="2.84073" fill="black"/>
<rect x="75.6284" y="396.607" width="2.83607" height="2.84073" fill="black"/>
<rect x="94.5361" y="396.607" width="2.83607" height="2.84073" fill="black"/>
<rect x="113.443" y="396.607" width="2.83607" height="2.84073" fill="black"/>
</g>
<g opacity="0.5">
<rect width="2.83607" height="2.84073" fill="black"/>
<rect x="18.9067" width="2.83607" height="2.84073" fill="black"/>
<rect x="37.8145" width="2.83607" height="2.84073" fill="black"/>
<rect x="56.7217" width="2.83607" height="2.84073" fill="black"/>
<rect x="75.6284" width="2.83607" height="2.84073" fill="black"/>
<rect x="94.5361" width="2.83607" height="2.84073" fill="black"/>
<rect x="113.443" width="2.83607" height="2.84073" fill="black"/>
<rect y="18.9377" width="2.83607" height="2.84073" fill="black"/>
<rect x="18.9067" y="18.9377" width="2.83607" height="2.84073" fill="black"/>
<rect x="37.8145" y="18.9377" width="2.83607" height="2.84073" fill="black"/>
<rect x="56.7217" y="18.9377" width="2.83607" height="2.84073" fill="black"/>
<rect x="75.6284" y="18.9377" width="2.83607" height="2.84073" fill="black"/>
<rect x="94.5361" y="18.9377" width="2.83607" height="2.84073" fill="black"/>
<rect x="113.443" y="18.9377" width="2.83607" height="2.84073" fill="black"/>
<rect y="37.8765" width="2.83607" height="2.84073" fill="black"/>
<rect x="18.9067" y="37.8765" width="2.83607" height="2.84073" fill="black"/>
<rect x="37.8145" y="37.8765" width="2.83607" height="2.84073" fill="black"/>
<rect x="56.7217" y="37.8765" width="2.83607" height="2.84073" fill="black"/>
<rect x="75.6284" y="37.8765" width="2.83607" height="2.84073" fill="black"/>
<rect x="94.5361" y="37.8765" width="2.83607" height="2.84073" fill="black"/>
<rect x="113.443" y="37.8765" width="2.83607" height="2.84073" fill="black"/>
<rect y="56.8153" width="2.83607" height="2.84073" fill="black"/>
<rect x="18.9067" y="56.8153" width="2.83607" height="2.84073" fill="black"/>
<rect x="37.8145" y="56.8153" width="2.83607" height="2.84073" fill="black"/>
<rect x="56.7217" y="56.8153" width="2.83607" height="2.84073" fill="black"/>
<rect x="75.6284" y="56.8153" width="2.83607" height="2.84073" fill="black"/>
<rect x="94.5361" y="56.8153" width="2.83607" height="2.84073" fill="black"/>
<rect x="113.443" y="56.8153" width="2.83607" height="2.84073" fill="black"/>
<rect y="75.7527" width="2.83607" height="2.84073" fill="black"/>
<rect x="18.9067" y="75.7527" width="2.83607" height="2.84073" fill="black"/>
<rect x="37.8145" y="75.7527" width="2.83607" height="2.84073" fill="black"/>
<rect x="56.7217" y="75.7527" width="2.83607" height="2.84073" fill="black"/>
<rect x="75.6284" y="75.7527" width="2.83607" height="2.84073" fill="black"/>
<rect x="94.5361" y="75.7527" width="2.83607" height="2.84073" fill="black"/>
<rect x="113.443" y="75.7527" width="2.83607" height="2.84073" fill="black"/>
<rect y="94.6914" width="2.83607" height="2.84073" fill="black"/>
<rect x="18.9067" y="94.6914" width="2.83607" height="2.84073" fill="black"/>
<rect x="37.8145" y="94.6914" width="2.83607" height="2.84073" fill="black"/>
<rect x="56.7217" y="94.6914" width="2.83607" height="2.84073" fill="black"/>
<rect x="75.6284" y="94.6914" width="2.83607" height="2.84073" fill="black"/>
<rect x="94.5361" y="94.6914" width="2.83607" height="2.84073" fill="black"/>
<rect x="113.443" y="94.6914" width="2.83607" height="2.84073" fill="black"/>
<rect y="113.629" width="2.83607" height="2.84073" fill="black"/>
<rect x="18.9067" y="113.629" width="2.83607" height="2.84073" fill="black"/>
<rect x="37.8145" y="113.629" width="2.83607" height="2.84073" fill="black"/>
<rect x="56.7217" y="113.629" width="2.83607" height="2.84073" fill="black"/>
<rect x="75.6284" y="113.629" width="2.83607" height="2.84073" fill="black"/>
<rect x="94.5361" y="113.629" width="2.83607" height="2.84073" fill="black"/>
<rect x="113.443" y="113.629" width="2.83607" height="2.84073" fill="black"/>
<rect y="132.567" width="2.83607" height="2.84073" fill="black"/>
<rect x="18.9067" y="132.568" width="2.83607" height="2.84073" fill="black"/>
<rect x="37.8145" y="132.568" width="2.83607" height="2.84073" fill="black"/>
<rect x="56.7217" y="132.568" width="2.83607" height="2.84073" fill="black"/>
<rect x="75.6284" y="132.568" width="2.83607" height="2.84073" fill="black"/>
<rect x="94.5361" y="132.568" width="2.83607" height="2.84073" fill="black"/>
<rect x="113.443" y="132.568" width="2.83607" height="2.84073" fill="black"/>
<rect y="151.506" width="2.83607" height="2.84073" fill="black"/>
<rect x="18.9067" y="151.506" width="2.83607" height="2.84073" fill="black"/>
<rect x="37.8145" y="151.506" width="2.83607" height="2.84073" fill="black"/>
<rect x="56.7217" y="151.506" width="2.83607" height="2.84073" fill="black"/>
<rect x="75.6284" y="151.506" width="2.83607" height="2.84073" fill="black"/>
<rect x="94.5361" y="151.506" width="2.83607" height="2.84073" fill="black"/>
<rect x="113.443" y="151.506" width="2.83607" height="2.84073" fill="black"/>
<rect y="170.443" width="2.83607" height="2.84073" fill="black"/>
<rect x="18.9067" y="170.443" width="2.83607" height="2.84073" fill="black"/>
<rect x="37.8145" y="170.443" width="2.83607" height="2.84073" fill="black"/>
<rect x="56.7217" y="170.443" width="2.83607" height="2.84073" fill="black"/>
<rect x="75.6284" y="170.443" width="2.83607" height="2.84073" fill="black"/>
<rect x="94.5361" y="170.443" width="2.83607" height="2.84073" fill="black"/>
<rect x="113.443" y="170.443" width="2.83607" height="2.84073" fill="black"/>
<rect y="189.382" width="2.83607" height="2.84073" fill="black"/>
<rect x="18.9067" y="189.383" width="2.83607" height="2.84073" fill="black"/>
<rect x="37.8145" y="189.383" width="2.83607" height="2.84073" fill="black"/>
<rect x="56.7217" y="189.383" width="2.83607" height="2.84073" fill="black"/>
<rect x="75.6284" y="189.383" width="2.83607" height="2.84073" fill="black"/>
<rect x="94.5361" y="189.383" width="2.83607" height="2.84073" fill="black"/>
<rect x="113.443" y="189.383" width="2.83607" height="2.84073" fill="black"/>
</g>
</svg>
