<svg width="154" height="154" viewBox="0 0 154 154" fill="none" xmlns="http://www.w3.org/2000/svg">
<path d="M61.7443 15.5686C40.1602 10.9967 18.889 24.8327 14.3171 46.3927C10.2505 65.5464 20.5012 84.7001 38.6924 91.8948C40.7377 92.6889 42.9034 93.3386 45.1171 93.8198C47.3309 94.3011 49.5687 94.5658 51.7824 94.662C52.3599 94.6861 52.9374 94.7102 53.4909 94.7102C62.8993 94.7102 71.6821 91.4376 78.6121 85.8311C85.518 80.2245 90.5712 72.308 92.5443 62.9958C97.1402 41.4358 83.3043 20.1645 61.7443 15.5686ZM87.8521 62.0092C84.2668 78.853 69.2277 90.5955 51.999 89.8495C50.0499 89.7773 48.0768 89.5367 46.1277 89.1036C44.1787 88.6945 42.2537 88.117 40.449 87.4192C24.4474 81.0908 15.448 64.247 19.0093 47.4033C22.5224 30.8723 37.1765 19.5148 53.4187 19.5148C55.8249 19.5148 58.2793 19.7555 60.7337 20.2848C79.719 24.3273 91.8705 43.0239 87.8521 62.0092Z" fill="#C2C3CB"/>
<path d="M129.191 24.3272C118.965 17.686 106.765 15.4241 94.854 17.9507C92.6643 18.4078 90.4987 19.0575 88.4053 19.8516C81.6678 13.0419 73.1496 8.39785 63.669 6.3766C50.7715 3.63347 37.5853 6.08785 26.5165 13.2825C15.4718 20.4772 7.86807 31.546 5.12494 44.4435C0.240255 67.4424 12.0501 90.4197 33.3406 99.8305L25.7826 135.424C24.6059 140.968 28.1576 146.435 33.7016 147.611C34.4186 147.763 35.1333 147.838 35.8383 147.838C40.5858 147.838 44.8642 144.519 45.8916 139.692L53.4448 104.116C61.3614 104.116 69.1336 102.191 76.1815 98.5095C84.1943 104.814 93.9878 108.231 104.142 108.279H104.157L111.075 140.859C112.037 145.393 116.053 148.507 120.512 148.507C121.174 148.507 121.845 148.439 122.516 148.295C125.038 147.761 127.201 146.276 128.604 144.113C130.007 141.95 130.488 139.372 129.952 136.851L123.026 104.239C123.026 104.239 123.026 104.239 123.029 104.239C142.616 95.48 153.468 74.3291 148.944 53.13C146.418 41.2191 139.418 30.9685 129.191 24.3272ZM41.1826 138.694C40.557 141.644 37.6526 143.528 34.7002 142.905C31.7525 142.279 29.8636 139.37 30.4892 136.422L37.8884 101.573C39.5921 102.148 41.3679 102.629 43.1678 103.012C44.9724 103.397 46.7771 103.685 48.5818 103.854L41.1826 138.694ZM75.2912 93.555C68.0484 97.6216 59.8671 99.5947 51.6137 99.2578H51.4934C49.0871 99.1375 46.6087 98.8247 44.1784 98.2953C41.6999 97.766 39.3178 97.0682 37.104 96.2019C37.0799 96.2019 37.0799 96.1778 37.0559 96.1778C37.0318 96.1778 37.0078 96.1538 36.9837 96.1538C36.9596 96.1538 36.9596 96.1297 36.9356 96.1297C16.6749 88.1169 5.29338 66.7975 9.81713 45.4541C12.2956 33.8078 19.1534 23.8219 29.1393 17.325C36.4784 12.5607 44.8281 10.1063 53.3462 10.1063C56.4503 10.1063 59.5784 10.4191 62.6824 11.0928C71.7059 13.0178 79.7909 17.5897 86.0471 24.3032C87.9721 26.3725 89.7046 28.6585 91.2446 31.1128C97.3806 40.9303 99.4499 52.6007 97.0437 63.9582C94.9743 73.7035 89.8971 82.2457 82.3174 88.6463H82.2934C80.1759 90.475 77.8178 92.1353 75.2912 93.555ZM121.518 143.588C118.909 144.139 116.335 142.469 115.781 139.861L109.02 108.017C109.02 108.017 109.024 108.017 109.027 108.017C110.687 107.848 112.251 107.583 113.791 107.247C115.379 106.91 116.943 106.501 118.483 105.995L125.247 137.849C125.801 140.46 124.126 143.032 121.518 143.588ZM119.422 100.557C119.398 100.557 119.398 100.581 119.374 100.581C119.35 100.581 119.326 100.605 119.302 100.605C117.232 101.423 115.042 102.049 112.781 102.53C110.663 103.012 108.473 103.3 106.091 103.421H105.995C96.9234 103.806 88.0443 101.135 80.6812 95.8891C80.7774 95.841 80.8737 95.7688 80.9699 95.6966C81.6196 95.2635 82.2693 94.8063 82.8709 94.3491C82.9912 94.2769 83.1115 94.1806 83.2318 94.0844C83.4724 93.8919 83.7371 93.6994 83.9778 93.4828C90.0174 97.4532 97.1159 99.5947 104.311 99.5947C104.816 99.5947 105.321 99.5947 105.826 99.5707C107.896 99.4985 109.989 99.2338 111.987 98.8007C114.128 98.3435 116.125 97.7419 117.978 96.996C134.798 90.3307 144.278 72.6447 140.525 54.9107C136.266 34.9628 116.582 22.1857 96.6106 26.4207C95.7924 26.6132 95.0224 26.8057 94.3006 26.9982C94.2043 26.8538 94.1081 26.7094 94.0118 26.565C93.5065 25.8432 92.9771 25.1213 92.4237 24.4475C92.2793 24.2069 92.0868 23.9663 91.8943 23.7257C93.1937 23.2925 94.5171 22.9557 95.8406 22.6669C106.524 20.405 117.425 22.4263 126.568 28.3697C135.712 34.3132 141.992 43.4569 144.254 54.1407C148.417 73.6794 137.974 93.1941 119.422 100.557Z" fill="#C2C3CB"/>
<path d="M49.4721 47.668C50.4346 43.1202 47.523 38.6205 42.9511 37.658L36.2136 36.2142C34.9142 35.9495 33.6389 36.7677 33.3502 38.067L30.8477 49.9058L28.3211 61.7445C28.0564 63.0439 28.8746 64.3192 30.198 64.5839L36.9355 66.0277C37.5371 66.148 38.1146 66.1961 38.7161 66.1961C40.3283 66.1961 41.9164 65.7389 43.288 64.8486C45.1889 63.6214 46.4883 61.7205 46.9696 59.5067C47.0899 58.9292 47.1621 58.3517 47.1621 57.7742C47.1621 56.0658 46.6327 54.4295 45.7183 53.058C45.7424 53.058 45.7905 53.0339 45.8146 53.0099C47.7155 51.7827 49.0149 49.8817 49.4721 47.668ZM37.5611 41.4358L41.9646 42.3502C43.9136 42.7833 45.1889 44.7083 44.7558 46.6814C44.5633 47.6199 44.0099 48.438 43.1917 48.9674C42.5902 49.3524 41.9164 49.5689 41.2186 49.5689C40.978 49.5689 40.7133 49.5208 40.4486 49.4727L36.0452 48.5583L37.5611 41.4358ZM42.2533 58.4961C42.0608 59.4586 41.4833 60.2767 40.6652 60.8061C39.8711 61.3355 38.8846 61.5039 37.9461 61.3114L33.5427 60.373L35.0586 53.2505L39.4621 54.1889H39.4861C41.4111 54.622 42.6624 56.547 42.2533 58.4961Z" fill="#C2C3CB"/>
<path d="M72.6935 43.9623L65.9319 42.5426C64.6325 42.2539 63.3572 43.0961 63.0925 44.3954L58.0635 68.0489C57.9191 68.6745 58.0394 69.3242 58.4003 69.8536C58.7372 70.3829 59.2907 70.7679 59.9163 70.8882L66.6778 72.332C67.2553 72.4523 67.8569 72.5245 68.4344 72.5245C72.3325 72.5245 75.8457 69.7814 76.6878 65.8111L79.2144 53.9964C79.6716 51.7826 79.2625 49.5207 78.0353 47.6198C76.7841 45.7429 74.9072 44.4436 72.6935 43.9623ZM74.4982 52.9857L71.9957 64.8245C71.5625 66.7736 69.6375 68.0248 67.6644 67.6157L63.261 66.7014L67.3035 47.7401L71.6828 48.6786C72.6453 48.8711 73.4635 49.4245 73.9928 50.2426C74.5222 51.0607 74.6907 52.0473 74.4982 52.9857Z" fill="#C2C3CB"/>
<path d="M57.4781 40.7377C56.1812 40.4562 54.901 41.2912 54.6243 42.5929L49.6001 66.2512C49.3234 67.5506 50.1535 68.8283 51.4553 69.105C51.6237 69.1411 51.7922 69.1579 51.9558 69.1579C53.0675 69.1579 54.0661 68.3831 54.3067 67.2522L59.3309 43.5939C59.6077 42.2946 58.7775 41.0169 57.4757 40.7401L57.4781 40.7377Z" fill="#C2C3CB"/>
</svg>
