<svg width="36" height="36" viewBox="0 0 36 36" fill="none" xmlns="http://www.w3.org/2000/svg">
<g clip-path="url(#clip0_108_16907)">
<path d="M32.6879 28.0554C32.1435 29.3132 31.4991 30.4709 30.7524 31.5353C29.7347 32.9864 28.9014 33.9908 28.2592 34.5486C27.2637 35.4641 26.197 35.933 25.0548 35.9596C24.2349 35.9596 23.246 35.7263 22.0949 35.253C20.9401 34.7819 19.8788 34.5486 18.9084 34.5486C17.8906 34.5486 16.7991 34.7819 15.6316 35.253C14.4623 35.7263 13.5203 35.973 12.8001 35.9974C11.7048 36.0441 10.6131 35.5619 9.52335 34.5486C8.82781 33.9419 7.95784 32.9019 6.91565 31.4287C5.79747 29.8554 4.87816 28.031 4.15796 25.951C3.38665 23.7044 3 21.529 3 19.4228C3 17.0102 3.52132 14.9294 4.56551 13.1857C5.38615 11.785 6.47789 10.6802 7.84429 9.86908C9.21069 9.058 10.6871 8.64468 12.277 8.61823C13.147 8.61823 14.2879 8.88734 15.7056 9.41621C17.1193 9.94686 18.0271 10.216 18.4251 10.216C18.7226 10.216 19.731 9.90131 21.4405 9.27399C23.0571 8.69223 24.4215 8.45135 25.5393 8.54624C28.5681 8.79067 30.8436 9.98464 32.3568 12.1357C29.648 13.777 28.3081 16.0758 28.3347 19.0248C28.3592 21.3218 29.1925 23.2333 30.8302 24.7511C31.5724 25.4555 32.4013 25.9999 33.3235 26.3866C33.1235 26.9666 32.9124 27.5221 32.6879 28.0554ZM25.7415 0.720693C25.7415 2.5211 25.0837 4.20214 23.7727 5.7581C22.1905 7.60782 20.2768 8.67668 18.2015 8.50801C18.1751 8.29202 18.1597 8.06469 18.1597 7.82581C18.1597 6.09742 18.9122 4.2477 20.2483 2.7353C20.9154 1.96954 21.7638 1.33283 22.7927 0.824911C23.8193 0.324571 24.7904 0.0478718 25.7037 0.000488281C25.7304 0.241175 25.7415 0.481877 25.7415 0.72067V0.720693Z" fill="black"/>
</g>
<defs>
<clipPath id="clip0_108_16907">
<rect width="36" height="36" fill="white"/>
</clipPath>
</defs>
</svg>
