<svg width="32" height="32" viewBox="0 0 32 32" fill="none" xmlns="http://www.w3.org/2000/svg">
<path d="M29.3346 25.3333V29.3333H2.66797V25.3333C2.66797 24.6 3.26797 24 4.0013 24H28.0013C28.7346 24 29.3346 24.6 29.3346 25.3333Z" fill="#43ACE9" stroke="#43ACE9" strokeWidth="1.5" stroke-miterlimit="10" strokeLinecap="round" strokeLinejoin="round"/>
<path d="M9.33464 14.6665H6.66797V23.9998H9.33464V14.6665Z" fill="#43ACE9"/>
<path d="M14.6667 14.6665H12V23.9998H14.6667V14.6665Z" fill="#43ACE9"/>
<path d="M19.9987 14.6665H17.332V23.9998H19.9987V14.6665Z" fill="#43ACE9"/>
<path d="M25.3346 14.6665H22.668V23.9998H25.3346V14.6665Z" fill="#43ACE9"/>
<path d="M30.6654 30.3335H1.33203C0.785365 30.3335 0.332031 29.8802 0.332031 29.3335C0.332031 28.7868 0.785365 28.3335 1.33203 28.3335H30.6654C31.212 28.3335 31.6654 28.7868 31.6654 29.3335C31.6654 29.8802 31.212 30.3335 30.6654 30.3335Z" fill="#43ACE9"/>
<path d="M28.4946 7.66662L16.4946 2.86662C16.228 2.75995 15.7746 2.75995 15.508 2.86662L3.50797 7.66662C3.0413 7.85329 2.66797 8.39995 2.66797 8.90662V13.3333C2.66797 14.0666 3.26797 14.6666 4.0013 14.6666H28.0013C28.7346 14.6666 29.3346 14.0666 29.3346 13.3333V8.90662C29.3346 8.39995 28.9613 7.85329 28.4946 7.66662ZM16.0013 11.3333C14.8946 11.3333 14.0013 10.44 14.0013 9.33329C14.0013 8.22662 14.8946 7.33329 16.0013 7.33329C17.108 7.33329 18.0013 8.22662 18.0013 9.33329C18.0013 10.44 17.108 11.3333 16.0013 11.3333Z" fill="#43ACE9"/>
</svg>
