<svg width="39" height="39" viewBox="0 0 39 39" fill="none" xmlns="http://www.w3.org/2000/svg">
<path d="M25.5938 0H13.4062C12.1133 0 10.8733 0.513615 9.9591 1.42785C9.04486 2.34209 8.53125 3.58207 8.53125 4.875V7.3125H13.4062V4.875H25.5938V7.3125H30.4688V4.875C30.4688 3.58207 29.9551 2.34209 29.0409 1.42785C28.1267 0.513615 26.8867 0 25.5938 0Z" fill="#43ACE9"/>
<path d="M15.8438 21.5999V20.7188C15.8438 20.3955 15.9722 20.0855 16.2007 19.857C16.4293 19.6284 16.7393 19.5 17.0625 19.5H21.9375C22.2607 19.5 22.5707 19.6284 22.7993 19.857C23.0278 20.0855 23.1562 20.3955 23.1562 20.7188V21.5999L39 15.2624V14.625C39 13.3321 38.4864 12.0921 37.5721 11.1779C36.6579 10.2636 35.4179 9.75 34.125 9.75H4.875C3.58207 9.75 2.34209 10.2636 1.42785 11.1779C0.513615 12.0921 0 13.3321 0 14.625L0 15.2624L15.8438 21.5999Z" fill="#43ACE9"/>
<path d="M23.1562 24.2251V26.8125C23.1562 27.1357 23.0278 27.4457 22.7993 27.6743C22.5707 27.9028 22.2607 28.0312 21.9375 28.0312H17.0625C16.7393 28.0312 16.4293 27.9028 16.2007 27.6743C15.9722 27.4457 15.8438 27.1357 15.8438 26.8125V24.2251L0 17.8876V34.125C0 35.4179 0.513615 36.6579 1.42785 37.5721C2.34209 38.4864 3.58207 39 4.875 39H34.125C35.4179 39 36.6579 38.4864 37.5721 37.5721C38.4864 36.6579 39 35.4179 39 34.125V17.8876L23.1562 24.2251Z" fill="#43ACE9"/>
<path d="M20.7188 23.3781V23.3756V21.9375H18.2812V23.3756V23.3781V25.5938H20.7188V23.3781Z" fill="#43ACE9"/>
</svg>
