<svg width="27" height="19" viewBox="0 0 27 19" fill="none" xmlns="http://www.w3.org/2000/svg">
<path fill-rule="evenodd" clip-rule="evenodd" d="M0.945312 5.0376C0.945312 2.69052 2.94339 0.787842 5.40815 0.787842H22.0694C24.5341 0.787842 26.5322 2.69052 26.5322 5.0376V14.1037C26.5322 16.4508 24.5341 18.3535 22.0694 18.3535H5.40814C2.94339 18.3535 0.945312 16.4508 0.945312 14.1037V5.0376ZM5.40815 2.48774C3.92929 2.48774 2.73045 3.62935 2.73045 5.0376V14.1037C2.73045 15.512 3.92929 16.6536 5.40814 16.6536H22.0694C23.5482 16.6536 24.7471 15.512 24.7471 14.1037V5.0376C24.7471 3.62935 23.5482 2.48774 22.0694 2.48774H5.40815Z" fill="white"/>
<path fill-rule="evenodd" clip-rule="evenodd" d="M0.945312 7.30405C0.945312 6.83464 1.34493 6.4541 1.83788 6.4541H25.6397C26.1326 6.4541 26.5322 6.83464 26.5322 7.30405C26.5322 7.77347 26.1326 8.154 25.6397 8.154H1.83788C1.34493 8.154 0.945312 7.77347 0.945312 7.30405Z" fill="white"/>
<path fill-rule="evenodd" clip-rule="evenodd" d="M4.51562 12.9708C4.51562 12.5014 4.91524 12.1208 5.40819 12.1208L12.5487 12.1208C13.0417 12.1208 13.4413 12.5014 13.4413 12.9708C13.4413 13.4402 13.0417 13.8208 12.5487 13.8208L5.40819 13.8208C4.91524 13.8208 4.51562 13.4402 4.51562 12.9708Z" fill="white"/>
</svg>
