<svg width="204" height="204" viewBox="0 0 204 204" fill="none" xmlns="http://www.w3.org/2000/svg">
<path d="M194.836 90.2541C194.835 93.5454 193.527 96.7017 191.199 99.029C188.872 101.356 185.716 102.664 182.424 102.665H177.675C181.499 102.729 185.146 104.292 187.828 107.019C190.51 109.746 192.013 113.417 192.013 117.242C192.013 121.067 190.51 124.739 187.828 127.465C185.146 130.192 181.499 131.756 177.675 131.819H174.954C186.732 131.819 193.537 145.047 187.006 154.602C185.669 156.566 183.872 158.174 181.772 159.286C179.671 160.397 177.33 160.977 174.954 160.977H167.005C170.208 160.974 173.281 162.243 175.548 164.505C177.815 166.768 179.09 169.838 179.094 173.041C179.097 176.244 177.827 179.317 175.565 181.584C173.302 183.851 170.232 185.127 167.029 185.13L59.4746 185.313C58.7998 187.925 57.2764 190.238 55.1438 191.89C53.0111 193.541 50.3902 194.438 47.6928 194.438H21.8382C18.611 194.438 15.5159 193.156 13.2339 190.874C10.9519 188.592 9.66992 185.496 9.66992 182.269V86.461C9.66992 84.8632 9.98469 83.2811 10.5963 81.805C11.2078 80.3289 12.1042 78.9877 13.2342 77.8581C14.3642 76.7285 15.7056 75.8325 17.1819 75.2215C18.6582 74.6104 20.2404 74.2961 21.8382 74.2967H47.6928C50.919 74.2967 54.013 75.5782 56.2943 77.8595C58.5755 80.1407 59.8571 83.2348 59.8571 86.461H63.8415C66.5245 86.4612 69.1679 85.8132 71.5467 84.5721C73.9255 83.3311 75.9692 81.5337 77.5039 79.3329L84.1419 69.8063C91.7668 58.8648 95.8538 45.8487 95.852 32.5125V19.3242C95.852 12.6145 102.51 7.8572 108.817 10.1602C116.157 12.8243 122.499 17.6829 126.982 24.0762C131.465 30.4695 133.871 38.0877 133.875 45.896V68.9297C133.875 70.6205 134.546 72.242 135.742 73.4375C136.938 74.633 138.559 75.3047 140.25 75.3047H181.213C183.117 75.3048 184.999 75.7022 186.741 76.4713C188.482 77.2404 190.043 78.3644 191.325 79.7714C192.608 81.1784 193.582 82.8374 194.186 84.6424C194.791 86.4474 195.012 88.3587 194.836 90.2541Z" fill="#D1E7FF"/>
<path d="M59.8571 86.4609V182.269C59.8576 183.867 59.5434 185.449 58.9323 186.926C58.3212 188.402 57.4253 189.743 56.2957 190.873C55.1661 192.003 53.8249 192.9 52.3488 193.511C50.8727 194.123 49.2906 194.437 47.6928 194.437H21.8382C20.2402 194.437 18.6579 194.123 17.1816 193.511C15.7053 192.9 14.3639 192.003 13.2339 190.873C12.104 189.744 11.2077 188.402 10.5962 186.926C9.98466 185.449 9.66992 183.867 9.66992 182.269V86.4609C9.66992 84.8632 9.98469 83.281 10.5963 81.8049C11.2078 80.3288 12.1042 78.9877 13.2342 77.8581C14.3642 76.7285 15.7056 75.8325 17.1819 75.2214C18.6582 74.6104 20.2404 74.2961 21.8382 74.2966H47.6928C50.919 74.2966 54.013 75.5782 56.2943 77.8595C58.5755 80.1407 59.8571 83.2348 59.8571 86.4609Z" fill="#B9DCFF"/>
<path d="M59.4746 185.313C59.9607 183.425 59.873 182.496 59.873 177.344C60.5942 177.344 167.188 177.173 167.718 177.141C172.81 176.85 173.635 184.393 168.579 185.03C167.431 185.174 174.639 185.118 59.4746 185.313Z" fill="#B9DCFF"/>
<path d="M111.311 23.6991C110.223 24.6397 109.347 25.8013 108.743 27.1066C108.138 28.4119 107.818 29.831 107.805 31.2694V44.4577C107.805 57.7911 103.718 70.8043 96.0948 81.7435L89.4569 91.2701C87.9239 93.4738 85.8809 95.2743 83.5021 96.5182C81.1232 97.7621 78.4789 98.4125 75.7944 98.4141H59.8569V86.461H63.8413C66.5244 86.4612 69.1678 85.8132 71.5465 84.5721C73.9253 83.3311 75.969 81.5337 77.5037 79.3329L84.1417 69.8063C91.7666 58.8648 95.8536 45.8487 95.8518 32.5125V19.3242C95.8518 12.6145 102.51 7.8572 108.817 10.1602C115.395 12.5309 115.774 20.0374 111.311 23.6991Z" fill="#E8F3FF"/>
<path d="M47.9199 90.493H37.7757C36.1779 90.4925 34.5957 90.8068 33.1194 91.4179C31.6431 92.0289 30.3017 92.9249 29.1717 94.0545C28.0417 95.1841 27.1453 96.5252 26.5338 98.0013C25.9222 99.4774 25.6074 101.06 25.6074 102.657V182.556C25.6074 192.947 9.66992 193.453 9.66992 182.536V86.7198C9.66992 85.1221 9.98469 83.5399 10.5963 82.0638C11.2078 80.5877 12.1042 79.2466 13.2342 78.117C14.3642 76.9874 15.7056 76.0914 17.1819 75.4804C18.6582 74.8693 20.2404 74.555 21.8382 74.5555H47.6928C59.0005 74.5555 58.2076 90.493 47.9199 90.493Z" fill="#D1E7FF"/>
<path d="M67.5232 89.6206V182.118C67.5232 182.963 67.1874 183.774 66.5896 184.372C65.9918 184.97 65.1811 185.305 64.3357 185.305H59.4668C60.0206 183.162 59.8652 190.003 59.8652 86.445C61.204 86.445 62.6543 86.5008 64.1763 86.445C64.6071 86.4235 65.0378 86.4895 65.4423 86.6393C65.8468 86.789 66.2168 87.0193 66.5297 87.3162C66.8426 87.6131 67.092 87.9704 67.2627 88.3665C67.4335 88.7626 67.5221 89.1892 67.5232 89.6206Z" fill="#B9DCFF"/>
<path d="M198.023 90.5489C197.985 90.9675 197.864 91.3743 197.668 91.7462C197.472 92.1181 197.205 92.4478 196.881 92.7164C196.558 92.985 196.185 93.1873 195.783 93.3117C195.382 93.4361 194.96 93.4803 194.541 93.4415C194.122 93.4028 193.715 93.282 193.344 93.0861C192.972 92.8901 192.642 92.6228 192.373 92.2995C192.105 91.9761 191.902 91.603 191.778 91.2014C191.654 90.7999 191.61 90.3778 191.648 89.9592C191.785 88.5061 191.617 87.0405 191.155 85.6561C190.693 84.2717 189.947 82.999 188.965 81.9196C187.983 80.8402 186.786 79.9777 185.451 79.3875C184.116 78.7973 182.673 78.4924 181.213 78.4922H133.875C133.029 78.4922 132.219 78.1563 131.621 77.5586C131.023 76.9608 130.687 76.15 130.687 75.3047C130.687 74.4593 131.023 73.6485 131.621 73.0508C132.219 72.453 133.029 72.1172 133.875 72.1172H181.213C183.561 72.1166 185.883 72.6059 188.031 73.5537C190.179 74.5015 192.105 75.8871 193.688 77.6217C195.27 79.3564 196.472 81.4021 197.219 83.628C197.965 85.8539 198.239 88.2111 198.023 90.5489ZM80.1336 81.1458L86.7716 71.6231C94.7817 60.1561 99.0653 46.5001 99.0395 32.5125V19.3242C99.0347 18.279 99.2813 17.2479 99.7586 16.3181C100.236 15.3882 100.93 14.5867 101.782 13.9812C102.634 13.3757 103.619 12.984 104.654 12.839C105.689 12.6941 106.744 12.8002 107.729 13.1484C114.447 15.6019 120.25 20.0574 124.356 25.9135C128.461 31.7695 130.671 38.7442 130.687 45.896V54.1875C130.687 55.0328 131.023 55.8436 131.621 56.4414C132.219 57.0391 133.029 57.375 133.875 57.375C134.72 57.375 135.531 57.0391 136.129 56.4414C136.727 55.8436 137.062 55.0328 137.062 54.1875V45.896C137.046 37.4342 134.433 29.1813 129.576 22.252C124.719 15.3226 117.853 10.0506 109.905 7.14794C101.398 4.06005 92.6645 10.5307 92.6645 19.3242V32.5125C92.6778 45.1983 88.7823 57.5802 81.5082 67.9734L74.9061 77.5C73.6643 79.2835 72.0094 80.74 70.0827 81.7453C68.156 82.7507 66.0147 83.2749 63.8415 83.2734H59.8571C59.0117 83.2734 58.201 83.6092 57.6032 84.207C57.0054 84.8048 56.6696 85.6155 56.6696 86.4609V182.269C56.6675 184.65 55.7212 186.932 54.0383 188.616C52.3554 190.299 50.0733 191.247 47.6928 191.25H21.8382C19.457 191.248 17.1739 190.301 15.4902 188.617C13.8064 186.933 12.8595 184.65 12.8574 182.269V86.4609C12.8606 84.0804 13.8079 81.7983 15.4916 80.1154C17.1752 78.4325 19.4577 77.4862 21.8382 77.4841H37.5526C38.398 77.4841 39.2087 77.1483 39.8065 76.5505C40.4043 75.9527 40.7401 75.142 40.7401 74.2966C40.7401 73.4512 40.4043 72.6405 39.8065 72.0427C39.2087 71.4449 38.398 71.1091 37.5526 71.1091H21.8382C17.7676 71.1133 13.8648 72.732 10.9861 75.61C8.10735 78.488 6.4877 82.3903 6.48242 86.4609V182.269C6.48664 186.34 8.10583 190.244 10.9847 193.123C13.8635 196.002 17.7669 197.621 21.8382 197.625H47.6928C51.7634 197.62 55.6658 196 58.5438 193.121C61.4217 190.243 63.0404 186.34 63.0446 182.269V89.6484H63.8415C67.0386 89.6463 70.1879 88.8722 73.0217 87.3919C75.8554 85.9115 78.2897 83.7688 80.1177 81.1458H80.1336ZM177.691 99.4739H160.092C159.673 99.4739 159.259 99.5563 158.872 99.7165C158.486 99.8767 158.134 100.111 157.838 100.407C157.542 100.703 157.307 101.055 157.147 101.442C156.987 101.828 156.905 102.243 156.905 102.661C156.905 103.08 156.987 103.494 157.147 103.881C157.307 104.268 157.542 104.619 157.838 104.915C158.134 105.211 158.486 105.446 158.872 105.606C159.259 105.766 159.673 105.849 160.092 105.849H177.675C179.261 105.841 180.831 106.169 182.282 106.81C183.733 107.452 185.032 108.392 186.094 109.57C192.66 116.782 187.688 128.632 177.671 128.632H160.172C159.326 128.632 158.516 128.967 157.918 129.565C157.32 130.163 156.984 130.974 156.984 131.819C156.984 132.664 157.32 133.475 157.918 134.073C158.516 134.671 159.326 135.007 160.172 135.007H174.95C176.536 134.999 178.106 135.327 179.557 135.968C181.008 136.609 182.307 137.55 183.369 138.728C189.939 145.94 184.963 157.789 174.95 157.789H149.956C145.529 157.789 145.537 164.164 149.956 164.164H167.005C168.243 164.158 169.468 164.414 170.6 164.915C171.733 165.415 172.746 166.149 173.575 167.069C178.707 172.703 174.81 181.931 167.021 181.942L78.8227 182.126C77.9774 182.126 77.1666 182.462 76.5688 183.059C75.9711 183.657 75.6352 184.468 75.6352 185.313C75.6352 186.159 75.9711 186.969 76.5688 187.567C77.1666 188.165 77.9774 188.501 78.8227 188.501L167.017 188.317C179.839 188.298 186.724 173.595 179.038 163.694C193.306 160.359 197.481 142.091 186.325 132.775C196.334 127.197 198.47 113.706 190.792 105.283C189.128 103.458 187.102 102 184.844 101.001C182.586 100.001 180.145 99.4826 177.675 99.4779L177.691 99.4739Z" fill="#43ACE9"/>
</svg>
