<svg width="44" height="44" viewBox="0 0 44 44" fill="none" xmlns="http://www.w3.org/2000/svg">
<path d="M39.3248 25.0065V26.8398C39.3248 27.3348 38.9398 27.7382 38.4265 27.7565H35.7498C34.7781 27.7565 33.8981 27.0415 33.8248 26.0882C33.7698 25.5198 33.9898 24.9882 34.3565 24.6215C34.6865 24.2732 35.1448 24.0898 35.6398 24.0898H38.4081C38.9398 24.1082 39.3248 24.5115 39.3248 25.0065Z" fill="#43ACE9"/>
<path d="M32.9812 23.2652C32.0645 24.1635 31.6245 25.5018 31.9912 26.8952C32.4679 28.6002 34.1362 29.6818 35.8962 29.6818H37.4912C38.4995 29.6818 39.3245 30.5068 39.3245 31.5152V31.8635C39.3245 35.6585 36.2262 38.7568 32.4312 38.7568H11.3845C7.58954 38.7568 4.49121 35.6585 4.49121 31.8635V19.5252C4.49121 17.2702 5.57288 15.2718 7.24121 14.0252C8.39621 13.1452 9.82621 12.6318 11.3845 12.6318H32.4312C36.2262 12.6318 39.3245 15.7302 39.3245 19.5252V20.3318C39.3245 21.3402 38.4995 22.1652 37.4912 22.1652H35.6212C34.5945 22.1652 33.6595 22.5685 32.9812 23.2652Z" fill="#43ACE9"/>
<path d="M29.6999 8.8365C30.1949 9.3315 29.7733 10.1015 29.0766 10.1015L14.9966 10.0832C14.1899 10.0832 13.7683 9.09317 14.3549 8.52484L17.3249 5.5365C19.8366 3.04317 23.9066 3.04317 26.4183 5.5365L29.6266 8.7815C29.6449 8.79984 29.6816 8.81817 29.6999 8.8365Z" fill="#43ACE9"/>
</svg>
