<svg width="44" height="44" viewBox="0 0 44 44" fill="none" xmlns="http://www.w3.org/2000/svg">
<path d="M32.1571 16.1517C35.1542 16.1517 37.5838 13.7221 37.5838 10.725C37.5838 7.72794 35.1542 5.29834 32.1571 5.29834C29.1601 5.29834 26.7305 7.72794 26.7305 10.725C26.7305 13.7221 29.1601 16.1517 32.1571 16.1517Z" fill="#43ACE9"/>
<path d="M11.8437 16.1517C14.8407 16.1517 17.2703 13.7221 17.2703 10.725C17.2703 7.72794 14.8407 5.29834 11.8437 5.29834C8.84659 5.29834 6.41699 7.72794 6.41699 10.725C6.41699 13.7221 8.84659 16.1517 11.8437 16.1517Z" fill="#43ACE9"/>
<path d="M32.1571 38.7015C35.1542 38.7015 37.5838 36.2719 37.5838 33.2748C37.5838 30.2777 35.1542 27.8481 32.1571 27.8481C29.1601 27.8481 26.7305 30.2777 26.7305 33.2748C26.7305 36.2719 29.1601 38.7015 32.1571 38.7015Z" fill="#43ACE9"/>
<path d="M11.8437 38.7015C14.8407 38.7015 17.2703 36.2719 17.2703 33.2748C17.2703 30.2777 14.8407 27.8481 11.8437 27.8481C8.84659 27.8481 6.41699 30.2777 6.41699 33.2748C6.41699 36.2719 8.84659 38.7015 11.8437 38.7015Z" fill="#43ACE9"/>
</svg>
