<svg width="44" height="44" viewBox="0 0 44 44" fill="none" xmlns="http://www.w3.org/2000/svg">
<path d="M37.657 34.9065C37.382 35.1815 37.0337 35.3099 36.6853 35.3099C36.337 35.3099 35.9887 35.1815 35.7137 34.9065L26.6387 25.8315L27.6103 24.8599L28.582 23.8882L37.657 32.9632C38.1887 33.4949 38.1887 34.3749 37.657 34.9065Z" fill="#43ACE9"/>
<path d="M11.8618 17.0132L22.4952 27.6465C23.2102 28.3615 23.2102 29.5165 22.4952 30.2315L20.8452 31.8998C19.3602 33.3665 17.0135 33.3665 15.5468 31.8998L7.59016 23.9432C6.14182 22.4948 6.14182 20.1298 7.59016 18.6632L9.25849 16.9948C9.97349 16.2982 11.1468 16.2982 11.8618 17.0132Z" fill="#43ACE9"/>
<path d="M34.0812 18.6816L27.0962 25.6482C26.3629 26.3816 25.1896 26.3816 24.4562 25.6482L13.8596 15.0516C13.1262 14.3182 13.1262 13.1449 13.8596 12.4116L20.8446 5.42658C22.2929 3.97825 24.6579 3.97825 26.1246 5.42658L34.0812 13.3833C35.5296 14.8499 35.5296 17.1966 34.0812 18.6816Z" fill="#43ACE9"/>
<path d="M14.667 39.875H3.66699C2.91533 39.875 2.29199 39.2517 2.29199 38.5C2.29199 37.7483 2.91533 37.125 3.66699 37.125H14.667C15.4187 37.125 16.042 37.7483 16.042 38.5C16.042 39.2517 15.4187 39.875 14.667 39.875Z" fill="#43ACE9"/>
</svg>
