<svg width="1440" height="306" viewBox="0 0 1440 306" fill="none" xmlns="http://www.w3.org/2000/svg">
<g opacity="0.5">
<rect x="5.72168" y="113" width="2.83607" height="2.84073" fill="black"/>
<rect x="24.6284" y="113" width="2.83607" height="2.84073" fill="black"/>
<rect x="43.5361" y="113" width="2.83607" height="2.84073" fill="black"/>
<rect x="62.4434" y="113" width="2.83607" height="2.84073" fill="black"/>
<rect x="81.3506" y="113" width="2.83607" height="2.84073" fill="black"/>
<rect x="100.258" y="113" width="2.83607" height="2.84073" fill="black"/>
<rect x="119.164" y="113" width="2.83607" height="2.84073" fill="black"/>
<rect x="5.72168" y="131.938" width="2.83607" height="2.84073" fill="black"/>
<rect x="24.6284" y="131.938" width="2.83607" height="2.84073" fill="black"/>
<rect x="43.5361" y="131.938" width="2.83607" height="2.84073" fill="black"/>
<rect x="62.4434" y="131.938" width="2.83607" height="2.84073" fill="black"/>
<rect x="81.3506" y="131.938" width="2.83607" height="2.84073" fill="black"/>
<rect x="100.258" y="131.938" width="2.83607" height="2.84073" fill="black"/>
<rect x="119.164" y="131.938" width="2.83607" height="2.84073" fill="black"/>
<rect x="5.72168" y="150.876" width="2.83607" height="2.84073" fill="black"/>
<rect x="24.6284" y="150.876" width="2.83607" height="2.84073" fill="black"/>
<rect x="43.5361" y="150.876" width="2.83607" height="2.84073" fill="black"/>
<rect x="62.4434" y="150.876" width="2.83607" height="2.84073" fill="black"/>
<rect x="81.3506" y="150.876" width="2.83607" height="2.84073" fill="black"/>
<rect x="100.258" y="150.876" width="2.83607" height="2.84073" fill="black"/>
<rect x="119.164" y="150.876" width="2.83607" height="2.84073" fill="black"/>
<rect x="5.72168" y="169.815" width="2.83607" height="2.84073" fill="black"/>
<rect x="24.6284" y="169.815" width="2.83607" height="2.84073" fill="black"/>
<rect x="43.5361" y="169.815" width="2.83607" height="2.84073" fill="black"/>
<rect x="62.4434" y="169.815" width="2.83607" height="2.84073" fill="black"/>
<rect x="81.3506" y="169.815" width="2.83607" height="2.84073" fill="black"/>
<rect x="100.258" y="169.815" width="2.83607" height="2.84073" fill="black"/>
<rect x="119.164" y="169.815" width="2.83607" height="2.84073" fill="black"/>
<rect x="5.72168" y="188.752" width="2.83607" height="2.84073" fill="black"/>
<rect x="24.6284" y="188.752" width="2.83607" height="2.84073" fill="black"/>
<rect x="43.5361" y="188.752" width="2.83607" height="2.84073" fill="black"/>
<rect x="62.4434" y="188.752" width="2.83607" height="2.84073" fill="black"/>
<rect x="81.3506" y="188.752" width="2.83607" height="2.84073" fill="black"/>
<rect x="100.258" y="188.752" width="2.83607" height="2.84073" fill="black"/>
<rect x="119.164" y="188.752" width="2.83607" height="2.84073" fill="black"/>
<rect x="5.72168" y="207.691" width="2.83607" height="2.84073" fill="black"/>
<rect x="24.6284" y="207.691" width="2.83607" height="2.84073" fill="black"/>
<rect x="43.5361" y="207.691" width="2.83607" height="2.84073" fill="black"/>
<rect x="62.4434" y="207.691" width="2.83607" height="2.84073" fill="black"/>
<rect x="81.3506" y="207.691" width="2.83607" height="2.84073" fill="black"/>
<rect x="100.258" y="207.691" width="2.83607" height="2.84073" fill="black"/>
<rect x="119.164" y="207.691" width="2.83607" height="2.84073" fill="black"/>
<rect x="5.72168" y="226.629" width="2.83607" height="2.84073" fill="black"/>
<rect x="24.6284" y="226.629" width="2.83607" height="2.84073" fill="black"/>
<rect x="43.5361" y="226.629" width="2.83607" height="2.84073" fill="black"/>
<rect x="62.4434" y="226.629" width="2.83607" height="2.84073" fill="black"/>
<rect x="81.3506" y="226.629" width="2.83607" height="2.84073" fill="black"/>
<rect x="100.258" y="226.629" width="2.83607" height="2.84073" fill="black"/>
<rect x="119.164" y="226.629" width="2.83607" height="2.84073" fill="black"/>
<rect x="5.72168" y="245.568" width="2.83607" height="2.84073" fill="black"/>
<rect x="24.6284" y="245.568" width="2.83607" height="2.84073" fill="black"/>
<rect x="43.5361" y="245.568" width="2.83607" height="2.84073" fill="black"/>
<rect x="62.4434" y="245.568" width="2.83607" height="2.84073" fill="black"/>
<rect x="81.3506" y="245.568" width="2.83607" height="2.84073" fill="black"/>
<rect x="100.258" y="245.568" width="2.83607" height="2.84073" fill="black"/>
<rect x="119.164" y="245.568" width="2.83607" height="2.84073" fill="black"/>
<rect x="5.72168" y="264.506" width="2.83607" height="2.84073" fill="black"/>
<rect x="24.6284" y="264.506" width="2.83607" height="2.84073" fill="black"/>
<rect x="43.5361" y="264.506" width="2.83607" height="2.84073" fill="black"/>
<rect x="62.4434" y="264.506" width="2.83607" height="2.84073" fill="black"/>
<rect x="81.3506" y="264.506" width="2.83607" height="2.84073" fill="black"/>
<rect x="100.258" y="264.506" width="2.83607" height="2.84073" fill="black"/>
<rect x="119.164" y="264.506" width="2.83607" height="2.84073" fill="black"/>
<rect x="5.72168" y="283.443" width="2.83607" height="2.84073" fill="black"/>
<rect x="24.6284" y="283.443" width="2.83607" height="2.84073" fill="black"/>
<rect x="43.5361" y="283.443" width="2.83607" height="2.84073" fill="black"/>
<rect x="62.4434" y="283.443" width="2.83607" height="2.84073" fill="black"/>
<rect x="81.3506" y="283.443" width="2.83607" height="2.84073" fill="black"/>
<rect x="100.258" y="283.443" width="2.83607" height="2.84073" fill="black"/>
<rect x="119.164" y="283.443" width="2.83607" height="2.84073" fill="black"/>
<rect x="5.72168" y="302.383" width="2.83607" height="2.84073" fill="black"/>
<rect x="24.6284" y="302.383" width="2.83607" height="2.84073" fill="black"/>
<rect x="43.5361" y="302.383" width="2.83607" height="2.84073" fill="black"/>
<rect x="62.4434" y="302.383" width="2.83607" height="2.84073" fill="black"/>
<rect x="81.3506" y="302.383" width="2.83607" height="2.84073" fill="black"/>
<rect x="100.258" y="302.383" width="2.83607" height="2.84073" fill="black"/>
<rect x="119.164" y="302.383" width="2.83607" height="2.84073" fill="black"/>
</g>
<g opacity="0.5">
<rect x="1313" width="2.83607" height="2.84073" fill="black"/>
<rect x="1331.91" width="2.83607" height="2.84073" fill="black"/>
<rect x="1350.81" width="2.83607" height="2.84073" fill="black"/>
<rect x="1369.72" width="2.83607" height="2.84073" fill="black"/>
<rect x="1388.63" width="2.83607" height="2.84073" fill="black"/>
<rect x="1407.54" width="2.83607" height="2.84073" fill="black"/>
<rect x="1426.44" width="2.83607" height="2.84073" fill="black"/>
<rect x="1313" y="18.9375" width="2.83607" height="2.84073" fill="black"/>
<rect x="1331.91" y="18.9375" width="2.83607" height="2.84073" fill="black"/>
<rect x="1350.81" y="18.9375" width="2.83607" height="2.84073" fill="black"/>
<rect x="1369.72" y="18.9375" width="2.83607" height="2.84073" fill="black"/>
<rect x="1388.63" y="18.9375" width="2.83607" height="2.84073" fill="black"/>
<rect x="1407.54" y="18.9375" width="2.83607" height="2.84073" fill="black"/>
<rect x="1426.44" y="18.9375" width="2.83607" height="2.84073" fill="black"/>
<rect x="1313" y="37.8765" width="2.83607" height="2.84073" fill="black"/>
<rect x="1331.91" y="37.8765" width="2.83607" height="2.84073" fill="black"/>
<rect x="1350.81" y="37.8765" width="2.83607" height="2.84073" fill="black"/>
<rect x="1369.72" y="37.8765" width="2.83607" height="2.84073" fill="black"/>
<rect x="1388.63" y="37.8765" width="2.83607" height="2.84073" fill="black"/>
<rect x="1407.54" y="37.8765" width="2.83607" height="2.84073" fill="black"/>
<rect x="1426.44" y="37.8765" width="2.83607" height="2.84073" fill="black"/>
<rect x="1313" y="56.8154" width="2.83607" height="2.84073" fill="black"/>
<rect x="1331.91" y="56.8154" width="2.83607" height="2.84073" fill="black"/>
<rect x="1350.81" y="56.8154" width="2.83607" height="2.84073" fill="black"/>
<rect x="1369.72" y="56.8154" width="2.83607" height="2.84073" fill="black"/>
<rect x="1388.63" y="56.8154" width="2.83607" height="2.84073" fill="black"/>
<rect x="1407.54" y="56.8154" width="2.83607" height="2.84073" fill="black"/>
<rect x="1426.44" y="56.8154" width="2.83607" height="2.84073" fill="black"/>
<rect x="1313" y="75.7524" width="2.83607" height="2.84073" fill="black"/>
<rect x="1331.91" y="75.7524" width="2.83607" height="2.84073" fill="black"/>
<rect x="1350.81" y="75.7524" width="2.83607" height="2.84073" fill="black"/>
<rect x="1369.72" y="75.7524" width="2.83607" height="2.84073" fill="black"/>
<rect x="1388.63" y="75.7524" width="2.83607" height="2.84073" fill="black"/>
<rect x="1407.54" y="75.7524" width="2.83607" height="2.84073" fill="black"/>
<rect x="1426.44" y="75.7524" width="2.83607" height="2.84073" fill="black"/>
<rect x="1313" y="94.6914" width="2.83607" height="2.84073" fill="black"/>
<rect x="1331.91" y="94.6914" width="2.83607" height="2.84073" fill="black"/>
<rect x="1350.81" y="94.6914" width="2.83607" height="2.84073" fill="black"/>
<rect x="1369.72" y="94.6914" width="2.83607" height="2.84073" fill="black"/>
<rect x="1388.63" y="94.6914" width="2.83607" height="2.84073" fill="black"/>
<rect x="1407.54" y="94.6914" width="2.83607" height="2.84073" fill="black"/>
<rect x="1426.44" y="94.6914" width="2.83607" height="2.84073" fill="black"/>
<rect x="1313" y="113.629" width="2.83607" height="2.84073" fill="black"/>
<rect x="1331.91" y="113.629" width="2.83607" height="2.84073" fill="black"/>
<rect x="1350.81" y="113.629" width="2.83607" height="2.84073" fill="black"/>
<rect x="1369.72" y="113.629" width="2.83607" height="2.84073" fill="black"/>
<rect x="1388.63" y="113.629" width="2.83607" height="2.84073" fill="black"/>
<rect x="1407.54" y="113.629" width="2.83607" height="2.84073" fill="black"/>
<rect x="1426.44" y="113.629" width="2.83607" height="2.84073" fill="black"/>
<rect x="1313" y="132.567" width="2.83607" height="2.84073" fill="black"/>
<rect x="1331.91" y="132.568" width="2.83607" height="2.84073" fill="black"/>
<rect x="1350.81" y="132.568" width="2.83607" height="2.84073" fill="black"/>
<rect x="1369.72" y="132.568" width="2.83607" height="2.84073" fill="black"/>
<rect x="1388.63" y="132.568" width="2.83607" height="2.84073" fill="black"/>
<rect x="1407.54" y="132.568" width="2.83607" height="2.84073" fill="black"/>
<rect x="1426.44" y="132.568" width="2.83607" height="2.84073" fill="black"/>
<rect x="1313" y="151.506" width="2.83607" height="2.84073" fill="black"/>
<rect x="1331.91" y="151.506" width="2.83607" height="2.84073" fill="black"/>
<rect x="1350.81" y="151.506" width="2.83607" height="2.84073" fill="black"/>
<rect x="1369.72" y="151.506" width="2.83607" height="2.84073" fill="black"/>
<rect x="1388.63" y="151.506" width="2.83607" height="2.84073" fill="black"/>
<rect x="1407.54" y="151.506" width="2.83607" height="2.84073" fill="black"/>
<rect x="1426.44" y="151.506" width="2.83607" height="2.84073" fill="black"/>
<rect x="1313" y="170.443" width="2.83607" height="2.84073" fill="black"/>
<rect x="1331.91" y="170.443" width="2.83607" height="2.84073" fill="black"/>
<rect x="1350.81" y="170.443" width="2.83607" height="2.84073" fill="black"/>
<rect x="1369.72" y="170.443" width="2.83607" height="2.84073" fill="black"/>
<rect x="1388.63" y="170.443" width="2.83607" height="2.84073" fill="black"/>
<rect x="1407.54" y="170.443" width="2.83607" height="2.84073" fill="black"/>
<rect x="1426.44" y="170.443" width="2.83607" height="2.84073" fill="black"/>
<rect x="1313" y="189.382" width="2.83607" height="2.84073" fill="black"/>
<rect x="1331.91" y="189.383" width="2.83607" height="2.84073" fill="black"/>
<rect x="1350.81" y="189.383" width="2.83607" height="2.84073" fill="black"/>
<rect x="1369.72" y="189.383" width="2.83607" height="2.84073" fill="black"/>
<rect x="1388.63" y="189.383" width="2.83607" height="2.84073" fill="black"/>
<rect x="1407.54" y="189.383" width="2.83607" height="2.84073" fill="black"/>
<rect x="1426.44" y="189.383" width="2.83607" height="2.84073" fill="black"/>
</g>
</svg>
