<svg width="166" height="166" viewBox="0 0 166 166" fill="none" xmlns="http://www.w3.org/2000/svg">
<path d="M162.75 92.625V107.75C162.75 109.938 161.881 112.036 160.334 113.584C158.786 115.131 156.688 116 154.5 116H153.469V151.406C153.469 154.324 152.31 157.122 150.247 159.184C148.184 161.247 145.386 162.406 142.469 162.406H14.25C11.3326 162.406 8.53473 161.247 6.47182 159.184C4.40892 157.122 3.25 154.324 3.25 151.406V48.9688C3.25 46.0514 4.40892 43.2535 6.47182 41.1906C8.53473 39.1277 11.3326 37.9688 14.25 37.9688H25.5938V11.5C25.5938 9.31196 26.4629 7.21354 28.0101 5.66637C29.5573 4.11919 31.6557 3.25 33.8438 3.25H80.25C81.8876 3.25013 83.488 3.7376 84.8476 4.65033C86.2072 5.56306 87.2645 6.85975 87.8847 8.37531L130.554 20.6575C131.596 20.9573 132.568 21.4594 133.415 22.1349C134.262 22.8105 134.968 23.6463 135.492 24.5947C136.016 25.5431 136.348 26.5854 136.47 27.6622C136.591 28.739 136.499 29.8291 136.199 30.8703L134.153 37.9688H142.469C145.386 37.9688 148.184 39.1277 150.247 41.1906C152.31 43.2535 153.469 46.0514 153.469 48.9688V84.375H154.5C156.688 84.375 158.786 85.2442 160.334 86.7914C161.881 88.3385 162.75 90.437 162.75 92.625Z" fill="#B9DCFF"/>
<path d="M88.5 37.9688H25.5938V11.5C25.5938 9.31196 26.4629 7.21354 28.0101 5.66637C29.5573 4.11919 31.6557 3.25 33.8438 3.25H80.25C81.8876 3.25013 83.488 3.7376 84.8476 4.65033C86.2072 5.56306 87.2645 6.85975 87.8847 8.37531C88.7234 10.4069 88.5 9.00437 88.5 37.9688Z" fill="#B9DCFF"/>
<path d="M136.197 30.8702L134.152 37.9687H88.4981C88.4981 9.01805 88.7216 10.4068 87.8828 8.37524L130.553 20.6574C131.594 20.9573 132.566 21.4593 133.413 22.1349C134.26 22.8104 134.966 23.6463 135.49 24.5946C136.014 25.543 136.347 26.5854 136.468 27.6621C136.589 28.7389 136.497 29.829 136.197 30.8702Z" fill="#E8F3FF"/>
<path d="M162.75 92.625V107.75C162.75 109.938 161.881 112.036 160.334 113.584C158.786 115.131 156.688 116 154.5 116H128.031C125.843 116 123.745 115.131 122.198 113.584C120.65 112.036 119.781 109.938 119.781 107.75V92.625C119.781 90.437 120.65 88.3385 122.198 86.7914C123.745 85.2442 125.843 84.375 128.031 84.375H154.5C156.688 84.375 158.786 85.2442 160.334 86.7914C161.881 88.3385 162.75 90.437 162.75 92.625Z" fill="#D1E7FF"/>
<path d="M130.553 20.6575C131.594 20.9573 132.566 21.4594 133.413 22.1349C134.26 22.8105 134.966 23.6463 135.49 24.5947C136.015 25.5431 136.347 26.5854 136.468 27.6622C136.589 28.739 136.497 29.8291 136.197 30.8703L134.152 37.9688H123.581C120.903 35.4718 119.301 32.0303 119.116 28.3731C118.93 24.7159 120.176 21.1301 122.588 18.375L130.553 20.6575Z" fill="#D1E7FF"/>
<path d="M154.534 94.6875H143.191C141.471 94.6875 139.768 95.0263 138.179 95.6844C136.59 96.3426 135.146 97.3073 133.93 98.5235C132.714 99.7396 131.749 101.183 131.091 102.772C130.433 104.361 130.094 106.064 130.094 107.784C130.094 114.402 120.125 114.79 119.781 108.183C119.781 107.839 119.781 92.3019 119.781 92.625C119.781 90.437 120.65 88.3385 122.198 86.7914C123.745 85.2442 125.843 84.375 128.031 84.375H154.5C161.612 84.375 161.241 94.6875 154.534 94.6875Z" fill="#E8F3FF"/>
<path d="M153.469 48.9688C153.469 51.5215 152.455 53.9696 150.65 55.7747C148.845 57.5797 146.396 58.5938 143.844 58.5938H118.062C66.0428 58.5938 23.875 100.762 23.875 152.781C23.875 155.334 22.8609 157.782 21.0559 159.587C19.2509 161.392 16.8027 162.406 14.25 162.406C11.3326 162.406 8.53473 161.247 6.47182 159.184C4.40892 157.122 3.25 154.324 3.25 151.406V48.9688C3.25 46.0514 4.40892 43.2535 6.47182 41.1906C8.53473 39.1277 11.3326 37.9688 14.25 37.9688H142.469C145.386 37.9688 148.184 39.1277 150.247 41.1906C152.31 43.2535 153.469 46.0514 153.469 48.9688Z" fill="#D1E7FF"/>
<path d="M82.0891 17H47.5938C45.4057 17 43.3073 17.8692 41.7601 19.4164C40.2129 20.9635 39.3438 23.062 39.3438 25.25V37.9688H25.5938V11.5C25.5938 9.31196 26.4629 7.21354 28.0101 5.66637C29.5573 4.11919 31.6557 3.25 33.8438 3.25H80.25C81.898 3.24978 83.5082 3.74311 84.8733 4.66641C86.2383 5.58971 87.2956 6.90067 87.9087 8.43031C88.2876 9.3799 88.4278 10.4079 88.3171 11.4242C88.2064 12.4406 87.8482 13.4143 87.2738 14.26C86.6994 15.1058 85.9265 15.7978 85.0226 16.2755C84.1187 16.7532 83.1114 17.002 82.0891 17Z" fill="#D1E7FF"/>
<path d="M43.125 3.25H57.9062V37.9688H43.125V3.25Z" fill="#A2D0FF"/>
<path d="M57.9062 3.25V17H47.5938C46.0078 16.9979 44.4553 17.4565 43.125 18.32V3.25H57.9062Z" fill="#B9DCFF"/>
<path d="M95.6309 37.9687H88.4981C88.4981 9.01805 88.7216 10.4068 87.8828 8.37524L95.5794 10.589C95.6516 11.2318 95.6309 9.34462 95.6309 37.9687Z" fill="#D1E7FF"/>
<path d="M156.219 81.7591V48.9688C156.219 45.322 154.77 41.8247 152.191 39.246C149.613 36.6674 146.115 35.2188 142.469 35.2188H137.807L138.839 31.63C139.641 28.8289 139.3 25.8238 137.889 23.2743C136.478 20.7247 134.114 18.8391 131.314 18.0312L100.112 9.03531C99.4173 8.85248 98.6787 8.94867 98.0541 9.30332C97.4294 9.65797 96.9684 10.2429 96.7694 10.9331C96.5705 11.6233 96.6495 12.3639 96.9895 12.9966C97.3296 13.6293 97.9037 14.1038 98.5891 14.3188L118.207 19.9666C116.994 22.3237 116.356 24.9344 116.345 27.5852C116.334 30.2361 116.951 32.8519 118.145 35.2188H60.6562V13.5625C60.6562 12.8332 60.3665 12.1337 59.8508 11.618C59.3351 11.1022 58.6356 10.8125 57.9062 10.8125C57.1769 10.8125 56.4774 11.1022 55.9617 11.618C55.446 12.1337 55.1562 12.8332 55.1562 13.5625V35.2188H45.875V13.5625C45.875 12.8332 45.5853 12.1337 45.0695 11.618C44.5538 11.1022 43.8543 10.8125 43.125 10.8125C42.3957 10.8125 41.6962 11.1022 41.1805 11.618C40.6647 12.1337 40.375 12.8332 40.375 13.5625V35.2188H28.3438V11.5C28.3438 10.0413 28.9232 8.64236 29.9547 7.61091C30.9861 6.57946 32.3851 6 33.8438 6H80.25C81.7087 6 83.1076 6.57946 84.1391 7.61091C85.1705 8.64236 85.75 10.0413 85.75 11.5V26.625C85.75 27.3543 86.0397 28.0538 86.5555 28.5695C87.0712 29.0853 87.7707 29.375 88.5 29.375C89.2293 29.375 89.9288 29.0853 90.4445 28.5695C90.9603 28.0538 91.25 27.3543 91.25 26.625V11.5C91.25 8.58262 90.0911 5.78473 88.0282 3.72183C85.9653 1.65893 83.1674 0.5 80.25 0.5H33.8438C30.9264 0.5 28.1285 1.65893 26.0656 3.72183C24.0027 5.78473 22.8438 8.58262 22.8438 11.5V35.2188H14.25C10.6033 35.2188 7.10591 36.6674 4.52728 39.246C1.94866 41.8247 0.5 45.322 0.5 48.9688V151.406C0.5 155.053 1.94866 158.55 4.52728 161.129C7.10591 163.708 10.6033 165.156 14.25 165.156H142.469C146.115 165.156 149.613 163.708 152.191 161.129C154.77 158.55 156.219 155.053 156.219 151.406V131.297C156.219 130.568 155.929 129.868 155.413 129.352C154.898 128.837 154.198 128.547 153.469 128.547C152.739 128.547 152.04 128.837 151.524 129.352C151.008 129.868 150.719 130.568 150.719 131.297V151.406C150.719 153.594 149.85 155.693 148.302 157.24C146.755 158.787 144.657 159.656 142.469 159.656H14.25C12.062 159.656 9.96354 158.787 8.41637 157.24C6.86919 155.693 6 153.594 6 151.406V48.9688C6 46.7807 6.86919 44.6823 8.41637 43.1351C9.96354 41.5879 12.062 40.7188 14.25 40.7188H142.469C144.657 40.7188 146.755 41.5879 148.302 43.1351C149.85 44.6823 150.719 46.7807 150.719 48.9688V81.625H128.031C125.114 81.625 122.316 82.7839 120.253 84.8468C118.19 86.9097 117.031 89.7076 117.031 92.625V107.75C117.031 110.667 118.19 113.465 120.253 115.528C122.316 117.591 125.114 118.75 128.031 118.75H154.5C157.417 118.75 160.215 117.591 162.278 115.528C164.341 113.465 165.5 110.667 165.5 107.75V92.625C165.496 90.0065 164.56 87.4749 162.859 85.4839C161.159 83.4928 158.804 82.1723 156.219 81.7591ZM123.642 21.5306L129.791 23.3009C131.193 23.7044 132.377 24.6482 133.083 25.9246C133.789 27.201 133.959 28.7055 133.555 30.1072L132.084 35.2188H124.735C123.081 33.3703 122.079 31.031 121.882 28.5589C121.684 26.0867 122.302 23.618 123.642 21.5306ZM160 107.75C160 109.209 159.421 110.608 158.389 111.639C157.358 112.671 155.959 113.25 154.5 113.25H128.031C126.573 113.25 125.174 112.671 124.142 111.639C123.111 110.608 122.531 109.209 122.531 107.75V92.625C122.531 91.1663 123.111 89.7674 124.142 88.7359C125.174 87.7045 126.573 87.125 128.031 87.125H154.5C155.959 87.125 157.358 87.7045 158.389 88.7359C159.421 89.7674 160 91.1663 160 92.625V107.75ZM138.344 100.188C138.344 100.917 138.054 101.616 137.538 102.132C137.023 102.648 136.323 102.938 135.594 102.938H131.469C130.739 102.938 130.04 102.648 129.524 102.132C129.008 101.616 128.719 100.917 128.719 100.188C128.719 99.4582 129.008 98.7587 129.524 98.243C130.04 97.7272 130.739 97.4375 131.469 97.4375H135.594C136.323 97.4375 137.023 97.7272 137.538 98.243C138.054 98.7587 138.344 99.4582 138.344 100.188Z" fill="#43ACE9"/>
</svg>
