<svg width="200" height="200" viewBox="0 0 200 200" fill="none" xmlns="http://www.w3.org/2000/svg">
<path d="M145.672 135.691C142.698 135.641 139.726 135.824 136.781 136.238C142.316 132.085 146.807 126.7 149.9 120.509C152.993 114.319 154.603 107.494 154.601 100.574V99.1016C157.711 99.1016 160.695 97.8677 162.896 95.6707C165.097 93.4736 166.337 90.493 166.343 87.3828C166.343 72.4883 166.367 48.7109 166.367 45.3086C166.364 41.3783 165.081 37.5558 162.712 34.4195C160.343 31.2832 157.018 29.0036 153.238 27.9258L150.738 27.1992C150.26 27.0602 149.815 26.8236 149.433 26.5043C149.05 26.1851 148.738 25.7901 148.516 25.3443C148.293 24.8985 148.166 24.4114 148.141 23.9139C148.116 23.4163 148.194 22.9189 148.371 22.4531L151.461 14.3086C151.667 13.7624 151.738 13.1744 151.667 12.5948C151.597 12.0152 151.387 11.4613 151.056 10.9806C150.724 10.4999 150.281 10.1066 149.765 9.83445C149.248 9.56231 148.673 9.41941 148.09 9.41797L99.5739 9.37501C92.4054 9.37102 85.4 11.514 79.4606 15.5277C73.5211 19.5414 68.9198 25.2419 66.2497 31.8945C64.6502 31.894 63.0663 32.2086 61.5884 32.8202C60.1105 33.4318 58.7676 34.3285 57.6362 35.4591C56.5049 36.5897 55.6073 37.9321 54.9947 39.4097C54.3822 40.8872 54.0666 42.4709 54.0661 44.0703C54.0661 49.0625 54.0388 83.8242 54.0348 88.0274C54.0409 89.4959 54.3379 90.9487 54.9086 92.3018C55.4793 93.655 56.3125 94.8816 57.3599 95.9109C58.4074 96.9403 59.6484 97.7518 61.0114 98.2988C62.3743 98.8458 63.832 99.1173 65.3005 99.0977C65.3005 106.98 66.4919 114.031 70.613 121.68L62.1286 114.844C62.3395 114.141 64.0622 108.004 60.3239 103.125C56.0075 97.4883 46.5388 96.625 41.7575 101.406C40.5856 100.469 39.5505 99.5274 38.4255 98.7266C33.2145 95.0195 26.8825 96.3008 23.3513 100.477C19.6091 104.91 20.0466 111.523 24.1325 115.625L35.2263 126.719C36.8295 128.322 38.8206 129.483 41.0057 130.088C43.1908 130.693 45.4954 130.722 47.695 130.172L56.7263 139.715C49.8005 144.484 44.4216 151.188 41.945 159.219C40.2302 164.773 40.3825 166.996 40.4059 184.289C40.4059 185.947 41.0644 187.536 42.2365 188.708C43.4086 189.881 44.9983 190.539 46.6559 190.539L172.992 190.625C174.649 190.625 176.239 189.967 177.411 188.794C178.583 187.622 179.242 186.033 179.242 184.375V169.324C179.247 164.911 178.383 160.541 176.698 156.462C175.014 152.383 172.542 148.676 169.425 145.553C166.307 142.43 162.605 139.951 158.529 138.259C154.454 136.567 150.084 135.694 145.672 135.691Z" fill="#D1E7FF"/>
<path d="M166.367 45.3125C166.367 48.6992 166.367 72.4922 166.344 87.3867C166.344 90.4947 165.109 93.4754 162.911 95.6731C160.714 97.8708 157.733 99.1055 154.625 99.1055C154.625 94.1992 154.625 82.2774 154.625 71.3086C154.628 68.4659 154.071 65.6505 152.985 63.0232C151.9 60.3959 150.307 58.0083 148.299 55.9967C146.29 53.9852 143.905 52.3892 141.279 51.2999C138.653 50.2107 135.839 49.6495 132.996 49.6484L86.9883 49.6094C84.145 49.6068 81.3291 50.1644 78.7014 51.2502C76.0736 52.336 73.6855 53.9288 71.6734 55.9376C69.6613 57.9465 68.0646 60.332 66.9746 62.958C65.8845 65.584 65.3224 68.399 65.3203 71.2422L65.3008 99.0977C63.8323 99.1173 62.3746 98.8458 61.0117 98.2988C59.6488 97.7518 58.4077 96.9403 57.3602 95.9109C56.3128 94.8816 55.4796 93.655 54.9089 92.3018C54.3382 90.9487 54.0412 89.4959 54.0352 88.0274C54.0352 83.8242 54.0625 49.0625 54.0664 44.0703C54.0669 42.4709 54.3825 40.8872 54.995 39.4097C55.6076 37.9321 56.5052 36.5897 57.6365 35.4591C58.7679 34.3285 60.1108 33.4318 61.5887 32.8202C63.0666 32.2086 64.6505 31.894 66.25 31.8945C68.9201 25.2419 73.5214 19.5414 79.4609 15.5277C85.4004 11.514 92.4057 9.37102 99.5742 9.37501L148.09 9.41016C148.674 9.4116 149.249 9.5545 149.765 9.82664C150.282 10.0988 150.725 10.492 151.056 10.9728C151.387 11.4535 151.597 12.0074 151.668 12.587C151.738 13.1666 151.667 13.7546 151.461 14.3008L148.371 22.4453C148.194 22.9111 148.116 23.4085 148.141 23.9061C148.166 24.4036 148.294 24.8907 148.516 25.3365C148.738 25.7823 149.05 26.1773 149.433 26.4965C149.815 26.8157 150.26 27.0523 150.738 27.1914L153.238 27.918C157.02 28.9964 160.347 31.2776 162.716 34.4163C165.085 37.555 166.367 41.3801 166.367 45.3125Z" fill="#42434D"/>
<path d="M99.836 129.375C107.176 133.969 101.398 145.23 93.3516 142.004C85.0673 138.688 77.9665 132.966 72.9653 125.576C67.9641 118.185 65.2917 109.466 65.293 100.543V71.2695C65.2863 66.8943 66.6106 62.6206 69.0899 59.0156C72.0938 54.6523 78.8555 56.8164 78.8242 62.1133V91.5195C78.8242 107.988 87.5 121.645 99.836 129.375Z" fill="#E8F3FF"/>
<path d="M166.367 45.3125C166.367 48.7031 166.367 72.5156 166.344 87.4102C166.344 88.9511 166.04 90.4768 165.449 91.9002C164.859 93.3235 163.994 94.6164 162.903 95.7049C161.812 96.7934 160.518 97.6561 159.093 98.2436C157.669 98.8312 156.142 99.132 154.602 99.1289C154.602 94.2188 154.602 82.2969 154.621 71.332C154.624 68.489 154.066 65.6733 152.98 63.0457C151.894 60.4182 150.302 58.0304 148.293 56.0186C146.284 54.0068 143.898 52.4104 141.272 51.3208C138.646 50.2311 135.831 49.6695 132.988 49.668L86.9844 49.6094C81.2425 49.6063 75.7345 51.884 71.6718 55.9415C67.6091 59.9991 65.3245 65.5042 65.3203 71.2461L65.3008 99.1016C63.8323 99.1201 62.3747 98.8478 61.012 98.3002C59.6493 97.7526 58.4085 96.9407 57.3612 95.9111C56.3139 94.8816 55.4807 93.6549 54.9099 92.3018C54.339 90.9487 54.0417 89.4959 54.0352 88.0274C54.0352 64.9805 54.0352 74.5586 54.0664 44.0703C54.0669 42.4712 54.3825 40.8879 54.9952 39.4108C55.6078 37.9338 56.5055 36.5919 57.637 35.4619C58.7684 34.3319 60.1115 33.4359 61.5893 32.8251C63.0672 32.2144 64.6509 31.9008 66.25 31.9024C68.918 25.2476 73.5186 19.5449 79.4583 15.5296C85.3981 11.5143 92.4046 9.37059 99.5742 9.37501L148.223 9.41016C148.792 9.41052 149.352 9.54895 149.856 9.81356C150.359 10.0782 150.791 10.4611 151.114 10.9294C151.437 11.3976 151.642 11.9373 151.71 12.5021C151.779 13.0669 151.709 13.6399 151.508 14.1719L146.988 26.0938L153.27 27.9219C157.047 29.0024 160.369 31.2846 162.732 34.4227C165.096 37.5609 166.372 41.3839 166.367 45.3125Z" fill="#B9DCFF"/>
<path d="M151.461 14.293C148.262 22.7227 148.309 22.5273 148.23 22.9258L113.105 22.8984C106.446 22.8946 99.9173 24.744 94.2492 28.2396C88.5812 31.7352 83.9977 36.7391 81.0117 42.6914C80.6447 43.4441 80.1133 44.1048 79.4568 44.6247C78.8003 45.1446 78.0355 45.5105 77.2188 45.6953C74.4957 46.2812 72.0555 47.7823 70.3049 49.9488C68.5542 52.1153 67.5988 54.8162 67.5977 57.6016V61.5898C66.1007 64.5871 65.3223 67.8919 65.3242 71.2422V88.1641C65.3242 95.4688 54.0469 95.9531 54.0508 88.0274C54.0508 83.8242 54.0781 49.0625 54.082 44.0703C54.0831 40.8428 55.3651 37.7476 57.6466 35.4646C59.9281 33.1817 63.0225 31.8976 66.25 31.8945C68.9201 25.2419 73.5214 19.5414 79.4609 15.5277C85.4004 11.514 92.4058 9.37102 99.5742 9.37501L148.09 9.41016C148.673 9.41116 149.247 9.55348 149.764 9.82494C150.28 10.0964 150.723 10.4889 151.054 10.9689C151.385 11.4488 151.595 12.0019 151.666 12.5809C151.737 13.1598 151.667 13.7472 151.461 14.293Z" fill="#D1E7FF"/>
<path d="M51.9102 108.875C51.198 108.87 50.5089 108.622 49.957 108.172L41.7578 101.418C43.0222 100.188 44.5768 99.297 46.2773 98.8281C46.7566 98.6957 47.2608 98.6808 47.747 98.7849C48.2333 98.8889 48.6872 99.1088 49.0703 99.4258L53.8828 103.332C54.3811 103.74 54.7411 104.292 54.9138 104.912C55.0864 105.533 55.0632 106.191 54.8473 106.798C54.6314 107.404 54.2333 107.93 53.7076 108.301C53.1819 108.673 52.5541 108.874 51.9102 108.875Z" fill="#B9DCFF"/>
<path d="M179.262 169.324V184.375C179.262 186.033 178.603 187.622 177.431 188.794C176.259 189.967 174.669 190.625 173.012 190.625L46.6758 190.539C45.0182 190.539 43.4285 189.881 42.2564 188.708C41.0843 187.536 40.4258 185.947 40.4258 184.289C40.3906 166.996 40.25 164.758 41.9648 159.219C44.4414 151.188 49.8203 144.484 56.7461 139.715L47.7148 130.172L62.1289 114.844L93.6289 140.18C96.6473 142.608 100.263 144.181 104.097 144.734C107.931 145.288 111.844 144.801 115.426 143.324C125.703 139.09 132.594 135.512 145.672 135.68C150.087 135.68 154.46 136.551 158.538 138.243C162.617 139.934 166.322 142.414 169.442 145.538C172.561 148.663 175.035 152.372 176.72 156.454C178.405 160.535 179.268 164.909 179.262 169.324Z" fill="#B9DCFF"/>
<path d="M140.137 180.211H113.672C107.782 180.211 101.954 179.008 96.5445 176.677C91.1354 174.346 86.2593 170.934 82.2148 166.652L56.7266 139.723C55.0012 140.908 53.3689 142.223 51.8438 143.656L77.6758 170.949C82.3114 175.839 87.8927 179.736 94.0806 182.402C100.269 185.069 106.934 186.45 113.672 186.461H140.125C140.954 186.461 141.749 186.132 142.335 185.546C142.921 184.96 143.25 184.165 143.25 183.336C143.25 182.507 142.921 181.712 142.335 181.126C141.749 180.54 140.954 180.211 140.125 180.211H140.137Z" fill="#A2D0FF"/>
<path d="M179.262 169.324V184.375C179.262 186.033 178.603 187.622 177.431 188.794C176.259 189.967 174.669 190.625 173.012 190.625H167.082C167.688 189.145 167.535 189.633 167.543 173.238C167.543 159.418 159.078 146.141 144.422 141.395C141.258 140.371 142.039 135.672 145.363 135.695H145.672C150.086 135.696 154.457 136.566 158.535 138.257C162.612 139.948 166.317 142.425 169.436 145.549C172.556 148.672 175.029 152.379 176.715 156.459C178.401 160.538 179.266 164.91 179.262 169.324Z" fill="#A2D0FF"/>
<path d="M38.4686 123.898C37.6635 124.699 36.5745 125.148 35.4393 125.148C34.3041 125.148 33.2151 124.699 32.41 123.898L24.1444 115.625C16.9959 108.477 21.9764 96.4844 31.9061 96.5352C34.3748 96.5352 35.7459 99.3438 34.367 101.398C32.9349 103.578 32.3014 106.186 32.5741 108.779C32.8469 111.372 34.009 113.791 35.8631 115.625L38.4725 118.238C38.8446 118.61 39.1398 119.051 39.3411 119.537C39.5423 120.023 39.6458 120.543 39.6454 121.069C39.645 121.595 39.5409 122.116 39.339 122.601C39.137 123.087 38.8412 123.527 38.4686 123.898Z" fill="#E8F3FF"/>
<path d="M151.414 100.543L151.433 71.2656C151.438 68.8339 150.962 66.4252 150.035 64.1773C149.107 61.9294 147.745 59.8865 146.027 58.1653C144.309 56.4442 142.269 55.0786 140.023 54.1467C137.777 53.2148 135.369 52.7349 132.937 52.7344L86.9608 52.7031C84.5287 52.7 82.1199 53.1765 79.8721 54.1054C77.6244 55.0342 75.5818 56.3971 73.8614 58.1161C72.1409 59.8351 70.7763 61.8765 69.8455 64.1235C68.9148 66.3704 68.4363 68.7789 68.4373 71.2109V90.668C68.4373 91.4968 68.1081 92.2916 67.522 92.8777C66.936 93.4637 66.1411 93.793 65.3123 93.793C64.4835 93.793 63.6887 93.4637 63.1026 92.8777C62.5166 92.2916 62.1873 91.4968 62.1873 90.668V71.2148C62.1878 67.964 62.8288 64.745 64.0735 61.7419C65.3183 58.7388 67.1425 56.0103 69.442 53.7123C71.7414 51.4143 74.471 49.5919 77.4749 48.349C80.4788 47.1061 83.6982 46.4672 86.949 46.4688L132.941 46.5C136.193 46.501 139.413 47.1429 142.417 48.3888C145.42 49.6348 148.149 51.4605 150.447 53.7615C152.745 56.0626 154.566 58.7939 155.808 61.7993C157.05 64.8048 157.687 68.0255 157.683 71.2773C157.683 71.3633 157.664 100.809 157.664 100.895C157.623 107.507 156.198 114.038 153.48 120.066C153.312 120.441 153.071 120.778 152.772 121.059C152.473 121.34 152.122 121.56 151.738 121.706C151.355 121.851 150.946 121.919 150.536 121.907C150.125 121.894 149.722 121.801 149.347 121.633C148.973 121.464 148.636 121.224 148.355 120.925C148.073 120.626 147.854 120.275 147.708 119.891C147.563 119.507 147.494 119.098 147.507 118.688C147.519 118.278 147.613 117.874 147.781 117.5C150.182 112.17 151.42 106.389 151.414 100.543ZM46.5037 149.734C45.7863 149.319 44.9334 149.207 44.1327 149.42C43.3321 149.634 42.6491 150.158 42.2342 150.875C39.0106 156.457 37.3131 162.789 37.3123 169.234V190.535C37.3123 191.364 37.6416 192.159 38.2276 192.745C38.8137 193.331 39.6085 193.66 40.4373 193.66C41.2661 193.66 42.061 193.331 42.647 192.745C43.2331 192.159 43.5623 191.364 43.5623 190.535V169.234C43.562 163.886 44.9685 158.633 47.6404 154C48.0544 153.283 48.1672 152.432 47.9541 151.632C47.741 150.832 47.2194 150.15 46.5037 149.734ZM54.0389 78.4258C54.8677 78.4258 55.6625 78.0965 56.2486 77.5105C56.8346 76.9244 57.1639 76.1296 57.1639 75.3008L57.1834 44.0508C57.1876 41.6534 58.1423 39.3555 59.8382 37.661C61.5342 35.9665 63.8329 35.0138 66.2303 35.0117C66.8544 35.0136 67.4647 34.8285 67.9827 34.4804C68.5006 34.1323 68.9025 33.6371 69.1365 33.0586C71.5687 26.9847 75.7657 21.7794 81.1858 18.1147C86.6059 14.4501 93.0001 12.4943 99.5428 12.5L148.722 12.5352L144.004 24.9766C143.851 25.38 143.783 25.8107 143.805 26.2416C143.826 26.6724 143.937 27.0942 144.129 27.4802C144.322 27.8663 144.593 28.2082 144.924 28.4846C145.255 28.7609 145.64 28.9657 146.055 29.0859L152.305 30.9023C155.426 31.8006 158.172 33.686 160.132 36.2761C162.092 38.8662 163.16 42.0216 163.176 45.2695L163.144 88.0547C163.144 88.8835 163.474 89.6783 164.06 90.2644C164.646 90.8504 165.441 91.1797 166.269 91.1797C167.098 91.1797 167.893 90.8504 168.479 90.2644C169.065 89.6783 169.394 88.8835 169.394 88.0547C169.394 87.7891 169.426 45.3672 169.426 45.0859C169.39 35.8125 163.07 27.5078 154.051 24.8789L151.055 24.0078L156.172 10.5195C156.351 10.0464 156.413 9.53676 156.353 9.03436C156.292 8.53196 156.11 8.05186 155.822 7.63533C155.535 7.2188 155.151 6.8783 154.703 6.64312C154.254 6.40793 153.756 6.28509 153.25 6.28516L99.5194 6.25C92.0706 6.24795 84.7774 8.38098 78.5036 12.3964C72.2299 16.4118 67.2385 22.1414 64.1209 28.9063C60.4697 29.4205 57.1265 31.2343 54.7048 34.0147C52.2831 36.7952 50.9455 40.3558 50.9373 44.043L50.9178 75.293C50.9168 75.7037 50.9967 76.1106 51.153 76.4903C51.3094 76.8701 51.5391 77.2154 51.8289 77.5063C52.1188 77.7973 52.4632 78.0283 52.8424 78.186C53.2216 78.3438 53.6282 78.4253 54.0389 78.4258ZM145.055 132.559C131.926 132.441 124.043 136.414 114.242 140.449C111.177 141.711 107.83 142.127 104.549 141.653C101.269 141.179 98.1756 139.832 95.5936 137.754L75.4217 121.531C74.7721 121.056 73.9642 120.85 73.1662 120.955C72.3683 121.061 71.6419 121.47 71.1383 122.098C70.6347 122.726 70.3929 123.524 70.4631 124.326C70.5334 125.128 70.9104 125.872 71.5154 126.402L91.6873 142.625C95.1427 145.404 99.2808 147.204 103.669 147.838C108.058 148.471 112.536 147.915 116.637 146.227C127.129 141.906 133.222 138.703 145.691 138.805C149.695 138.805 153.66 139.594 157.359 141.127C161.058 142.661 164.419 144.908 167.248 147.741C170.078 150.574 172.322 153.937 173.851 157.638C175.38 161.339 176.165 165.304 176.16 169.309V190.609C176.16 191.438 176.489 192.233 177.075 192.819C177.661 193.405 178.456 193.734 179.285 193.734C180.114 193.734 180.909 193.405 181.495 192.819C182.081 192.233 182.41 191.438 182.41 190.609V169.309C182.422 150.16 167.531 132.77 145.047 132.559H145.055ZM146.394 180.215C146.394 181.044 146.065 181.839 145.479 182.425C144.893 183.011 144.098 183.34 143.269 183.34H113.672C107.358 183.328 101.112 182.034 95.3134 179.534C89.515 177.035 84.2851 173.383 79.9412 168.801L46.6014 133.559C44.1364 133.87 41.6329 133.616 39.2809 132.815C36.9288 132.014 34.7902 130.688 33.0272 128.937L21.7733 117.684C19.1953 115.107 17.7059 111.638 17.6126 107.994C17.5193 104.35 18.8293 100.81 21.272 98.1043C23.7147 95.3988 27.1034 93.7351 30.7378 93.4569C34.3722 93.1787 37.9746 94.3072 40.8006 96.6094L41.5819 97.2578C41.7069 97.1772 41.8375 97.1055 41.9725 97.043C49.4608 93.4805 58.2225 95.2461 62.8084 101.234C67.3944 107.223 65.5428 114.367 65.1248 115.746C64.824 116.742 65.0662 116.293 52.0037 130.172L84.4959 164.504C88.2532 168.468 92.7767 171.627 97.7921 173.79C102.807 175.953 108.21 177.074 113.672 177.086H143.25C143.661 177.084 144.069 177.164 144.449 177.32C144.83 177.477 145.176 177.707 145.467 177.997C145.759 178.287 145.99 178.632 146.148 179.012C146.305 179.392 146.387 179.8 146.387 180.211L146.394 180.215ZM46.0936 127.313L59.285 113.301C61.1209 104.785 54.2459 100.098 47.1756 101.801L51.9295 105.668C52.2478 105.927 52.5119 106.247 52.7068 106.608C52.9016 106.969 53.0233 107.366 53.0651 107.774C53.1068 108.183 53.0676 108.595 52.9499 108.989C52.8321 109.382 52.638 109.748 52.3787 110.066C52.1194 110.385 51.8 110.649 51.4386 110.844C51.0772 111.038 50.681 111.16 50.2725 111.202C49.8641 111.244 49.4515 111.205 49.0582 111.087C48.6649 110.969 48.2986 110.775 47.9803 110.516L36.8553 101.457C35.2749 100.128 33.2403 99.4654 31.1805 99.6078C29.1208 99.7502 27.1968 100.687 25.8143 102.22C24.4318 103.754 23.6987 105.764 23.7698 107.828C23.8408 109.891 24.7104 111.846 26.1951 113.281L37.4451 124.531C38.5671 125.641 39.9347 126.472 41.4372 126.955C42.9397 127.438 44.5349 127.561 46.0936 127.313ZM135.078 73.3164C134.832 72.9878 134.524 72.7109 134.171 72.5014C133.818 72.292 133.427 72.1541 133.021 72.0957C132.614 72.0373 132.201 72.0595 131.803 72.161C131.405 72.2626 131.031 72.4415 130.703 72.6875L118.683 81.7031C118.295 81.9942 117.98 82.3717 117.763 82.8056C117.546 83.2395 117.433 83.718 117.433 84.2031C117.433 84.6883 117.546 85.1667 117.763 85.6007C117.98 86.0346 118.295 86.412 118.683 86.7031L130.719 95.7031C131.382 96.2004 132.215 96.4139 133.036 96.2967C133.856 96.1795 134.596 95.7412 135.094 95.0781C135.591 94.4151 135.804 93.5817 135.687 92.7612C135.57 91.9407 135.132 91.2004 134.469 90.7031L125.781 84.2031L134.469 77.6914C135.132 77.1941 135.57 76.4538 135.687 75.6333C135.804 74.8129 135.591 73.9794 135.094 73.3164H135.078ZM87.2654 96.3438C87.9416 96.3438 88.5995 96.1244 89.1404 95.7188L101.172 86.7188C101.56 86.4277 101.875 86.0502 102.092 85.6163C102.309 85.1824 102.422 84.7039 102.422 84.2188C102.422 83.7336 102.309 83.2551 102.092 82.8212C101.875 82.3873 101.56 82.0098 101.172 81.7188L89.1404 72.6875C88.8119 72.4413 88.438 72.2622 88.0403 72.1604C87.6425 72.0587 87.2286 72.0363 86.8221 72.0945C86.0013 72.2121 85.2608 72.6509 84.7635 73.3145C84.2662 73.978 84.0529 74.8119 84.1705 75.6328C84.288 76.4536 84.7269 77.1941 85.3904 77.6914L94.074 84.2031L85.3904 90.7188C84.8657 91.1123 84.4781 91.6609 84.2826 92.287C84.087 92.913 84.0934 93.5847 84.3008 94.207C84.5082 94.8292 84.9062 95.3704 85.4382 95.7539C85.9703 96.1374 86.6096 96.3438 87.2654 96.3438Z" fill="#43ACE9"/>
</svg>
