<svg width="120" height="120" viewBox="0 0 120 120" fill="none" xmlns="http://www.w3.org/2000/svg">
<g clip-path="url(#clip0_68_2919)">
<path d="M64.9993 120H54.9993V105H64.9993V120ZM34.9993 105H24.9993V120H34.9993V105ZM119.999 60.0001C119.999 69.2827 116.312 78.1851 109.748 84.7488C103.184 91.3126 94.2818 95.0001 84.9993 95.0001H23.9093C18.7316 94.9455 13.7112 93.2133 9.60146 90.0635C5.49173 86.9136 2.51429 82.5159 1.11592 77.5303C-0.282455 72.5448 -0.0263501 67.2401 1.84581 62.4125C3.71796 57.5848 7.1052 53.4944 11.4993 50.7551C-0.500744 2.06009 66.7693 -20.9999 87.1143 25.1051C96.0073 25.6435 104.36 29.553 110.471 36.0369C116.581 42.5207 119.989 51.0907 119.999 60.0001ZM49.9993 70.0001H39.9993V85.0001H49.9993V70.0001ZM79.9993 70.0001H69.9993V85.0001H79.9993V70.0001ZM94.9993 105H84.9993V120H94.9993V105Z" fill="#C2C3CB"/>
</g>
<defs>
<clipPath id="clip0_68_2919">
<rect width="120" height="120" fill="white"/>
</clipPath>
</defs>
</svg>
