<svg width="190" height="170" viewBox="0 0 190 170" fill="none" xmlns="http://www.w3.org/2000/svg">
<path d="M185.625 43.957V150.207C185.625 154.351 183.979 158.325 181.049 161.256C178.118 164.186 174.144 165.832 170 165.832H20C15.856 165.832 11.8817 164.186 8.95146 161.256C6.0212 158.325 4.375 154.351 4.375 150.207V43.957C4.375 39.813 6.0212 35.8387 8.95146 32.9085C11.8817 29.9782 15.856 28.332 20 28.332H170C174.144 28.332 178.118 29.9782 181.049 32.9085C183.979 35.8387 185.625 39.813 185.625 43.957Z" fill="#D1E7FF"/>
<path d="M113.145 93.3516L181.047 161.254C179.598 162.707 177.876 163.859 175.98 164.645C174.084 165.431 172.052 165.834 170 165.832H20C17.9479 165.834 15.9156 165.431 14.0198 164.645C12.124 163.859 10.4022 162.707 8.95312 161.254L76.8555 93.3516L86.7969 98.1836C89.3496 99.4234 92.1504 100.068 94.9883 100.068C97.8261 100.068 100.627 99.4234 103.18 98.1836L113.145 93.3516Z" fill="#B9DCFF"/>
<path d="M185.625 43.957V53.5977C185.625 54.962 185.242 56.299 184.518 57.4554C183.794 58.6119 182.759 59.5411 181.531 60.1367L181.496 60.1562C180.077 60.8386 178.477 61.0481 176.93 60.7539C134.453 52.7656 91.5977 59.0664 53.6953 78.8281C52.6889 79.3546 51.5731 79.6378 50.4374 79.6547C49.3017 79.6717 48.1779 79.422 47.1562 78.9258L4.375 58.1484V43.957C4.375 39.813 6.0212 35.8387 8.95146 32.9085C11.8817 29.9782 15.856 28.332 20 28.332H170C174.144 28.332 178.118 29.9782 181.049 32.9085C183.979 35.8387 185.625 39.813 185.625 43.957Z" fill="#E8F3FF"/>
<path d="M185.625 58.1484V71.2344L121.953 102.16L113.145 93.3516L185.625 58.1484Z" fill="#B9DCFF"/>
<path d="M121.953 102.16L103.203 111.27C100.65 112.509 97.8496 113.153 95.0117 113.153C92.1739 113.153 89.373 112.509 86.8203 111.27L68.0703 102.16L76.8789 93.3516L86.7969 98.1836C89.3496 99.4234 92.1504 100.068 94.9883 100.068C97.8261 100.068 100.627 99.4234 103.18 98.1836L113.133 93.3516L121.953 102.16Z" fill="#A2D0FF"/>
<path d="M76.8555 93.3516L68.0469 102.16L4.375 71.2344V58.1484L76.8555 93.3516Z" fill="#B9DCFF"/>
<path d="M183.617 10.3008L167.949 56.875C167.754 57.4548 167.393 57.9646 166.912 58.3412C166.43 58.7179 165.848 58.9448 165.238 58.9939C164.628 59.0429 164.018 58.912 163.482 58.6173C162.946 58.3226 162.508 57.877 162.223 57.3359L153.727 41.2031L152.461 38.8047C152.166 38.2474 151.71 37.7915 151.152 37.4961L148.754 36.2305L132.625 27.7344C132.084 27.4492 131.638 27.0115 131.344 26.4755C131.049 25.9395 130.918 25.3288 130.967 24.7191C131.016 24.1094 131.243 23.5275 131.62 23.0455C131.996 22.5636 132.506 22.2028 133.086 22.0078L179.66 6.34374C180.211 6.15869 180.803 6.13112 181.369 6.26411C181.935 6.39711 182.453 6.6854 182.864 7.09657C183.276 7.50773 183.564 8.02546 183.697 8.59152C183.83 9.15759 183.802 9.74953 183.617 10.3008Z" fill="#D1E7FF"/>
<path d="M183.617 10.3008C183.408 10.9162 183.06 11.4752 182.6 11.9344C182.14 12.3937 181.58 12.7409 180.965 12.9492C128.262 30.6797 138.437 27.2422 136.277 28.0195C135.716 28.2311 135.116 28.3234 134.517 28.2904C133.918 28.2575 133.332 28.1 132.797 27.8281C130.008 26.3476 130.609 22.8437 133.086 22.0117L179.66 6.34374C180.211 6.15869 180.803 6.13112 181.369 6.26411C181.935 6.39711 182.453 6.6854 182.864 7.09657C183.275 7.50773 183.564 8.02546 183.697 8.59152C183.83 9.15759 183.802 9.74953 183.617 10.3008Z" fill="#E8F3FF"/>
<path d="M189.062 59.6094V148.621C189.062 151.34 188.527 154.032 187.487 156.544C186.446 159.056 184.921 161.338 182.999 163.26C181.076 165.183 178.794 166.708 176.282 167.748C173.77 168.789 171.078 169.324 168.359 169.324H21.5625C18.8437 169.324 16.1516 168.789 13.6398 167.748C11.1279 166.708 8.84564 165.183 6.92318 163.26C5.00072 161.338 3.47574 159.056 2.43531 156.544C1.39488 154.032 0.859375 151.34 0.859375 148.621V45.5469C0.859375 40.056 3.04059 34.7901 6.92318 30.9075C10.8058 27.0249 16.0717 24.8437 21.5625 24.8437H105.156C106.089 24.8437 106.983 25.2141 107.642 25.8734C108.301 26.5327 108.672 27.427 108.672 28.3594C108.672 29.2918 108.301 30.186 107.642 30.8453C106.983 31.5046 106.089 31.875 105.156 31.875H21.5625C17.9365 31.875 14.459 33.3154 11.895 35.8794C9.33105 38.4434 7.89062 41.9209 7.89062 45.5469V55.9687L88.2539 94.9961C90.3388 96.0162 92.6303 96.5435 94.9514 96.5375C97.2724 96.5314 99.5611 95.992 101.641 94.9609L147.344 72.4687C147.758 72.2635 148.209 72.142 148.671 72.111C149.132 72.0801 149.595 72.1403 150.033 72.2883C150.471 72.4363 150.876 72.6692 151.224 72.9736C151.572 73.278 151.857 73.648 152.062 74.0625C152.268 74.477 152.389 74.9278 152.42 75.3893C152.451 75.8507 152.391 76.3138 152.243 76.7519C152.095 77.1901 151.862 77.5948 151.558 77.943C151.253 78.2912 150.883 78.576 150.469 78.7812L104.766 101.27C101.728 102.775 98.3857 103.563 94.9957 103.571C91.6057 103.579 88.2592 102.808 85.2148 101.316L7.89062 63.7812V148.621C7.89062 152.247 9.33105 155.725 11.895 158.289C14.459 160.853 17.9365 162.293 21.5625 162.293H168.367C171.993 162.293 175.471 160.853 178.035 158.289C180.599 155.725 182.039 152.247 182.039 148.621V59.6094C182.039 58.677 182.409 57.7827 183.069 57.1234C183.728 56.4641 184.622 56.0937 185.555 56.0937C186.487 56.0937 187.381 56.4641 188.041 57.1234C188.7 57.7827 189.07 58.677 189.07 59.6094H189.062ZM55.7734 109.434L21.5078 143.695C20.8479 144.355 20.4769 145.249 20.4766 146.182C20.4762 147.115 20.8464 148.01 21.5059 148.67C22.1653 149.33 23.0598 149.701 23.9928 149.701C24.9257 149.702 25.8205 149.331 26.4805 148.672L60.7422 114.41C61.0803 114.087 61.3503 113.699 61.5365 113.269C61.7227 112.84 61.8213 112.378 61.8265 111.91C61.8317 111.442 61.7434 110.977 61.5668 110.544C61.3902 110.11 61.1288 109.717 60.798 109.386C60.4672 109.055 60.0736 108.793 59.6403 108.616C59.207 108.439 58.7428 108.35 58.2748 108.355C57.8068 108.36 57.3445 108.458 56.915 108.644C56.4854 108.83 56.0973 109.1 55.7734 109.437V109.434ZM134.148 109.434C133.825 109.096 133.436 108.826 133.007 108.64C132.577 108.454 132.115 108.356 131.647 108.351C131.179 108.346 130.715 108.435 130.282 108.612C129.848 108.789 129.455 109.051 129.124 109.382C128.793 109.713 128.532 110.107 128.355 110.54C128.178 110.973 128.09 111.438 128.095 111.906C128.101 112.374 128.199 112.836 128.385 113.265C128.572 113.695 128.842 114.083 129.18 114.406L163.441 148.672C163.768 148.998 164.156 149.257 164.582 149.434C165.009 149.611 165.466 149.702 165.928 149.702C166.389 149.702 166.847 149.611 167.273 149.434C167.7 149.257 168.088 148.998 168.414 148.672C168.741 148.345 169 147.958 169.176 147.531C169.353 147.105 169.444 146.647 169.444 146.186C169.444 145.724 169.353 145.267 169.176 144.84C169 144.413 168.741 144.026 168.414 143.699L134.148 109.434ZM125.051 21.0039L184.504 1.01561C185.124 0.806894 185.791 0.775519 186.428 0.925018C187.065 1.07452 187.648 1.39895 188.111 1.86179C188.574 2.32464 188.898 2.9075 189.048 3.54475C189.197 4.18201 189.166 4.84835 188.957 5.46874L168.957 64.9258C168.738 65.5778 168.332 66.1511 167.79 66.5747C167.248 66.9983 166.593 67.2536 165.908 67.3089C165.222 67.3642 164.535 67.2171 163.932 66.8859C163.329 66.5546 162.837 66.0537 162.516 65.4453L149.406 40.5664L124.531 27.4453C123.923 27.1243 123.422 26.6318 123.091 26.0288C122.759 25.4259 122.612 24.739 122.668 24.0533C122.723 23.3676 122.978 22.7132 123.402 22.1712C123.825 21.6291 124.399 21.2233 125.051 21.0039ZM135.07 25.0508L151.355 33.6445L163.137 21.8594C163.463 21.5329 163.851 21.2739 164.277 21.0971C164.704 20.9204 165.161 20.8295 165.623 20.8295C166.085 20.8295 166.542 20.9204 166.969 21.0971C167.395 21.2739 167.783 21.5329 168.109 21.8594C168.436 22.1859 168.695 22.5735 168.872 23.0001C169.048 23.4267 169.139 23.8839 169.139 24.3457C169.139 24.8074 169.048 25.2647 168.872 25.6913C168.695 26.1179 168.436 26.5055 168.109 26.832L156.328 38.6054L164.922 54.8945L180.035 9.92577L135.07 25.0508Z" fill="#43ACE9"/>
</svg>
