<svg width="180" height="134" viewBox="0 0 180 134" fill="none" xmlns="http://www.w3.org/2000/svg">
<path d="M165 3.625H15C8.37258 3.625 3 8.99758 3 15.625V118.375C3 125.002 8.37258 130.375 15 130.375H165C171.627 130.375 177 125.002 177 118.375V15.625C177 8.99758 171.627 3.625 165 3.625Z" fill="#D1E7FF"/>
<path d="M177 15.625V24.9212C177 28.4462 174 30.9212 171.285 30.9212C108.285 34.0187 59.0662 71.7962 38.4975 126.497C38.0669 127.641 37.2976 128.625 36.2924 129.319C35.2872 130.014 34.0941 130.385 32.8725 130.382H15C11.8174 130.382 8.76515 129.118 6.51472 126.868C4.26428 124.617 3 121.565 3 118.382V15.625C3 12.4424 4.26428 9.39015 6.51472 7.13972C8.76515 4.88928 11.8174 3.625 15 3.625H165C168.183 3.625 171.235 4.88928 173.485 7.13972C175.736 9.39015 177 12.4424 177 15.625Z" fill="#E8F3FF"/>
<path d="M159 93.625C159 105.25 144.682 110.74 136.875 102.25C129.06 110.733 114.75 105.228 114.75 93.625C114.75 82.0225 129.068 76.51 136.875 85C144.686 76.5063 159 82 159 93.625Z" fill="#A2D0FF"/>
<path d="M127.5 106.375C134.542 106.375 140.25 100.667 140.25 93.625C140.25 86.5834 134.542 80.875 127.5 80.875C120.458 80.875 114.75 86.5834 114.75 93.625C114.75 100.667 120.458 106.375 127.5 106.375Z" fill="#B9DCFF"/>
<path d="M3 30.625H177V56.125H3V30.625Z" fill="#B9DCFF"/>
<path d="M172.875 30.625C169.148 31.84 132.165 30.0025 93.6488 56.0613L93.555 56.125H3V30.625H172.875Z" fill="#D1E7FF"/>
<path d="M180 15.625V118.375C180 122.353 178.42 126.169 175.607 128.982C172.794 131.795 168.978 133.375 165 133.375H15C11.0218 133.375 7.20644 131.795 4.3934 128.982C1.58035 126.169 0 122.353 0 118.375V73.375C0 72.5794 0.31607 71.8163 0.87868 71.2537C1.44129 70.6911 2.20435 70.375 3 70.375C3.79565 70.375 4.55871 70.6911 5.12132 71.2537C5.68393 71.8163 6 72.5794 6 73.375V118.375C6 120.762 6.94821 123.051 8.63604 124.739C10.3239 126.427 12.6131 127.375 15 127.375H165C167.387 127.375 169.676 126.427 171.364 124.739C173.052 123.051 174 120.762 174 118.375V15.625C174 13.2381 173.052 10.9489 171.364 9.26104C169.676 7.57321 167.387 6.625 165 6.625H15C12.6131 6.625 10.3239 7.57321 8.63604 9.26104C6.94821 10.9489 6 13.2381 6 15.625V27.625H159.75C160.546 27.625 161.309 27.9411 161.871 28.5037C162.434 29.0663 162.75 29.8294 162.75 30.625C162.75 31.4206 162.434 32.1837 161.871 32.7463C161.309 33.3089 160.546 33.625 159.75 33.625H6V53.125H159.75C160.546 53.125 161.309 53.4411 161.871 54.0037C162.434 54.5663 162.75 55.3293 162.75 56.125C162.75 56.9207 162.434 57.6837 161.871 58.2463C161.309 58.8089 160.546 59.125 159.75 59.125H3C2.20435 59.125 1.44129 58.8089 0.87868 58.2463C0.31607 57.6837 0 56.9207 0 56.125V15.625C0 11.6468 1.58035 7.83144 4.3934 5.0184C7.20644 2.20535 11.0218 0.625 15 0.625H165C168.978 0.625 172.794 2.20535 175.607 5.0184C178.42 7.83144 180 11.6468 180 15.625ZM156 93.625C156 85.9225 147.439 81.25 140.955 85.4425C147.319 95.875 139.785 109.375 127.5 109.375C123.323 109.375 119.317 107.716 116.363 104.762C113.409 101.808 111.75 97.8022 111.75 93.625C111.75 80.6987 126.54 73.2962 136.875 80.9762C147.259 73.3 162 80.725 162 93.625C162 97.8022 160.341 101.808 157.387 104.762C154.433 107.716 150.427 109.375 146.25 109.375C145.454 109.375 144.691 109.059 144.129 108.496C143.566 107.934 143.25 107.171 143.25 106.375C143.25 105.579 143.566 104.816 144.129 104.254C144.691 103.691 145.454 103.375 146.25 103.375C148.836 103.375 151.316 102.348 153.144 100.519C154.973 98.6908 156 96.2109 156 93.625ZM137.25 93.625C137.25 91.6966 136.678 89.8116 135.607 88.2082C134.535 86.6048 133.013 85.3551 131.231 84.6172C129.45 83.8792 127.489 83.6861 125.598 84.0623C123.707 84.4385 121.969 85.3671 120.606 86.7307C119.242 88.0943 118.314 89.8316 117.937 91.7229C117.561 93.6142 117.754 95.5746 118.492 97.3562C119.23 99.1377 120.48 100.66 122.083 101.732C123.687 102.803 125.572 103.375 127.5 103.375C130.086 103.375 132.566 102.348 134.394 100.519C136.223 98.6908 137.25 96.2109 137.25 93.625ZM27.375 87.25H52.5C53.2957 87.25 54.0587 86.9339 54.6213 86.3713C55.1839 85.8087 55.5 85.0456 55.5 84.25C55.5 83.4544 55.1839 82.6913 54.6213 82.1287C54.0587 81.5661 53.2957 81.25 52.5 81.25H27.375C26.5794 81.25 25.8163 81.5661 25.2537 82.1287C24.6911 82.6913 24.375 83.4544 24.375 84.25C24.375 85.0456 24.6911 85.8087 25.2537 86.3713C25.8163 86.9339 26.5794 87.25 27.375 87.25ZM27.375 106H52.5C53.2957 106 54.0587 105.684 54.6213 105.121C55.1839 104.559 55.5 103.796 55.5 103C55.5 102.204 55.1839 101.441 54.6213 100.879C54.0587 100.316 53.2957 100 52.5 100H27.375C26.5794 100 25.8163 100.316 25.2537 100.879C24.6911 101.441 24.375 102.204 24.375 103C24.375 103.796 24.6911 104.559 25.2537 105.121C25.8163 105.684 26.5794 106 27.375 106Z" fill="#43ACE9"/>
</svg>
