<svg width="32" height="32" viewBox="0 0 32 32" fill="none" xmlns="http://www.w3.org/2000/svg">
<path d="M22.667 2.66675H9.33366C5.65366 2.66675 2.66699 5.64008 2.66699 9.30675V17.2801V18.6134C2.66699 22.2801 5.65366 25.2534 9.33366 25.2534H11.3337C11.6937 25.2534 12.1737 25.4934 12.4003 25.7867L14.4003 28.4401C15.2803 29.6134 16.7203 29.6134 17.6003 28.4401L19.6003 25.7867C19.8537 25.4534 20.2537 25.2534 20.667 25.2534H22.667C26.347 25.2534 29.3337 22.2801 29.3337 18.6134V9.30675C29.3337 5.64008 26.347 2.66675 22.667 2.66675ZM17.3337 18.3334H9.33366C8.78699 18.3334 8.33366 17.8801 8.33366 17.3334C8.33366 16.7867 8.78699 16.3334 9.33366 16.3334H17.3337C17.8803 16.3334 18.3337 16.7867 18.3337 17.3334C18.3337 17.8801 17.8803 18.3334 17.3337 18.3334ZM22.667 11.6667H9.33366C8.78699 11.6667 8.33366 11.2134 8.33366 10.6667C8.33366 10.1201 8.78699 9.66675 9.33366 9.66675H22.667C23.2137 9.66675 23.667 10.1201 23.667 10.6667C23.667 11.2134 23.2137 11.6667 22.667 11.6667Z" fill="#8144E9"/>
</svg>
