<svg width="26" height="32" viewBox="0 0 26 32" fill="none" xmlns="http://www.w3.org/2000/svg">
<path d="M25 8.5V23.5C25 29.5 23.5 31 17.5 31H8.5C2.5 31 1 29.5 1 23.5V8.5C1 2.5 2.5 1 8.5 1H17.5C23.5 1 25 2.5 25 8.5Z" stroke="#23262F" strokeWidth="1.5" strokeLinecap="round" strokeLinejoin="round"/>
<path d="M16 6.25H10" stroke="#23262F" strokeWidth="1.5" strokeLinecap="round" strokeLinejoin="round"/>
<path d="M12.9998 26.65C14.2839 26.65 15.3248 25.6091 15.3248 24.325C15.3248 23.0409 14.2839 22 12.9998 22C11.7157 22 10.6748 23.0409 10.6748 24.325C10.6748 25.6091 11.7157 26.65 12.9998 26.65Z" stroke="#23262F" strokeWidth="1.5" strokeLinecap="round" strokeLinejoin="round"/>
</svg>
