<svg width="32" height="32" viewBox="0 0 32 32" fill="none" xmlns="http://www.w3.org/2000/svg">
<path d="M22.667 5.33325H9.33366C5.33366 5.33325 2.66699 7.33325 2.66699 11.9999V16.7466C2.66699 17.2399 3.17366 17.5466 3.61366 17.3466C4.92033 16.7466 6.42699 16.5199 8.01366 16.7999C11.5203 17.4266 14.0937 20.6799 14.0003 24.2399C13.987 24.7999 13.907 25.3466 13.7603 25.8799C13.6537 26.2933 13.987 26.6799 14.4137 26.6799H22.667C26.667 26.6799 29.3337 24.6799 29.3337 20.0133V11.9999C29.3337 7.33325 26.667 5.33325 22.667 5.33325ZM16.0003 19.3333C14.1603 19.3333 12.667 17.8399 12.667 15.9999C12.667 14.1599 14.1603 12.6666 16.0003 12.6666C17.8403 12.6666 19.3337 14.1599 19.3337 15.9999C19.3337 17.8399 17.8403 19.3333 16.0003 19.3333ZM25.667 18.6666C25.667 19.2133 25.2137 19.6666 24.667 19.6666C24.1203 19.6666 23.667 19.2133 23.667 18.6666V13.3333C23.667 12.7866 24.1203 12.3333 24.667 12.3333C25.2137 12.3333 25.667 12.7866 25.667 13.3333V18.6666Z" fill="#43ACE9"/>
<path d="M6.66634 18.6667C3.71967 18.6667 1.33301 21.0534 1.33301 24.0001C1.33301 25.0001 1.61301 25.9467 2.10634 26.7467C3.02634 28.2934 4.71967 29.3334 6.66634 29.3334C8.61301 29.3334 10.3063 28.2934 11.2263 26.7467C11.7197 25.9467 11.9997 25.0001 11.9997 24.0001C11.9997 21.0534 9.61301 18.6667 6.66634 18.6667ZM9.29301 23.5601L6.45301 26.1867C6.26634 26.3601 6.01301 26.4534 5.77301 26.4534C5.51967 26.4534 5.26634 26.3601 5.06634 26.1601L3.74634 24.8401C3.35967 24.4534 3.35967 23.8134 3.74634 23.4267C4.13301 23.0401 4.77301 23.0401 5.15967 23.4267L5.79967 24.0667L7.93301 22.0934C8.33301 21.7201 8.97301 21.7467 9.34634 22.1467C9.71968 22.5467 9.69301 23.1867 9.29301 23.5601Z" fill="#43ACE9"/>
</svg>
