<svg width="52" height="53" viewBox="0 0 52 53" fill="none" xmlns="http://www.w3.org/2000/svg">
<path fill-rule="evenodd" clip-rule="evenodd" d="M6.78516 11.5547C6.78516 6.83817 10.6087 3.01465 15.3252 3.01465H33.138C35.403 3.01465 37.5752 3.91441 39.1768 5.51598L42.7142 9.0534C44.3158 10.655 45.2155 12.8272 45.2155 15.0922V41.445C45.2155 46.1616 41.392 49.9851 36.6754 49.9851H15.3252C10.6087 49.9851 6.78516 46.1616 6.78516 41.445V11.5547ZM40.9455 17.9598V41.445C40.9455 43.8033 39.0337 45.7151 36.6754 45.7151H15.3252C12.967 45.7151 11.0552 43.8033 11.0552 41.445V11.5547C11.0552 9.19645 12.967 7.28469 15.3252 7.28469H30.2704V11.5547C30.2704 15.0922 33.138 17.9598 36.6754 17.9598H40.9455ZM40.7086 13.6898C40.499 13.0868 40.1548 12.5327 39.6948 12.0728L36.1574 8.53536C35.6975 8.0754 35.1434 7.73121 34.5404 7.52155V11.5547C34.5404 12.7339 35.4963 13.6898 36.6754 13.6898H40.7086Z" fill="#23262F"/>
<path d="M25.1799 20.2567C24.928 20.3609 24.6921 20.5154 24.4874 20.7201L18.0824 27.1251C17.2486 27.9589 17.2486 29.3107 18.0824 30.1445C18.9161 30.9783 20.268 30.9783 21.1017 30.1445L23.8621 27.3841V37.1749C23.8621 38.354 24.818 39.3099 25.9971 39.3099C27.1763 39.3099 28.1321 38.354 28.1321 37.1749V27.3841L30.8925 30.1445C31.7263 30.9783 33.0781 30.9783 33.9119 30.1445C34.7456 29.3107 34.7456 27.9589 33.9119 27.1251L27.5068 20.7201C26.8777 20.091 25.9537 19.9365 25.1799 20.2567Z" fill="#23262F"/>
</svg>
