<svg width="120" height="120" viewBox="0 0 120 120" fill="none" xmlns="http://www.w3.org/2000/svg">
<g clip-path="url(#clip0_68_2911)">
<path d="M109.453 30.2344H10.5469C4.73203 30.2344 0 34.9664 0 40.7812V79.2188C0 85.0336 4.73203 89.7656 10.5469 89.7656H109.453C115.268 89.7656 120 85.0336 120 79.2188V40.7812C120 34.9664 115.268 30.2344 109.453 30.2344ZM48.5156 71.25C48.5156 72.7301 47.5884 74.0517 46.1967 74.5556C45.8055 74.6972 45.4008 74.7656 45.0005 74.7659C43.977 74.7659 42.9802 74.318 42.2991 73.5007L35.625 65.4916L28.9507 73.5007C28.0031 74.6379 26.4448 75.0595 25.053 74.5556C23.6613 74.0517 22.7344 72.7303 22.7344 71.25V48.75C22.7344 46.8084 24.3084 45.2344 26.25 45.2344C28.1916 45.2344 29.7656 46.8084 29.7656 48.75V61.5396L32.9243 57.7493C33.5923 56.9477 34.5818 56.4844 35.625 56.4844C36.6682 56.4844 37.6577 56.948 38.3257 57.7493L41.4844 61.5396V48.75C41.4844 46.8084 43.0584 45.2344 45 45.2344C46.9416 45.2344 48.5156 46.8084 48.5156 48.75V71.25ZM63.5156 71.25C63.5156 73.1916 61.9416 74.7656 60 74.7656C58.0584 74.7656 56.4844 73.1916 56.4844 71.25V48.75C56.4844 46.8084 58.0584 45.2344 60 45.2344C61.9416 45.2344 63.5156 46.8084 63.5156 48.75V71.25ZM93.5156 71.25C93.5156 72.7992 92.5015 74.1659 91.0188 74.6147C90.682 74.7166 90.3391 74.7659 90.0002 74.7659C88.8466 74.7659 87.7392 74.1966 87.0748 73.2L78.5156 60.3614V71.25C78.5156 73.1916 76.9416 74.7656 75 74.7656C73.0584 74.7656 71.4844 73.1916 71.4844 71.25V48.75C71.4844 47.2008 72.4985 45.8341 73.9812 45.3853C75.4641 44.9362 77.0658 45.5109 77.9252 46.8L86.4844 59.6388V48.75C86.4844 46.8084 88.0584 45.2344 90 45.2344C91.9416 45.2344 93.5156 46.8084 93.5156 48.75V71.25Z" fill="#C2C3CB"/>
<path d="M116.484 24.1406H88.125C87.0916 24.1406 86.1105 23.6859 85.4426 22.8975C84.7746 22.1091 84.4873 21.0666 84.6572 20.047L85.6948 13.8213L71.9395 16.5724C70.897 16.7817 69.8161 16.5066 68.9993 15.8259L60 8.32641L51.0007 15.8259C50.1839 16.5063 49.1027 16.7812 48.0605 16.5724L34.3052 13.8213L35.3428 20.047C35.5127 21.0663 35.2256 22.1088 34.5574 22.8975C33.8892 23.6862 32.9084 24.1406 31.875 24.1406H3.51562C1.57406 24.1406 0 22.5666 0 20.625C0 18.6834 1.57406 17.1094 3.51562 17.1094H27.7249L26.5322 9.95297C26.3421 8.81344 26.7244 7.65305 27.5545 6.84938C28.3845 6.0457 29.5566 5.70094 30.6895 5.92781L47.7909 9.34805L57.7493 1.0493C59.0531 -0.0372656 60.9469 -0.0372656 62.2507 1.0493L72.2091 9.34805L89.3105 5.92781C90.4434 5.70094 91.6153 6.0457 92.4455 6.84938C93.2756 7.65305 93.6577 8.81344 93.4678 9.95297L92.2751 17.1094H116.484C118.426 17.1094 120 18.6834 120 20.625C120 22.5666 118.426 24.1406 116.484 24.1406Z" fill="#C2C3CB"/>
<path d="M60 119.766C59.2005 119.766 58.4013 119.494 57.7493 118.951L47.7909 110.652L30.6895 114.072C29.5561 114.299 28.3845 113.954 27.5545 113.151C26.7244 112.347 26.3423 111.187 26.5322 110.047L27.7249 102.891H3.51562C1.57406 102.891 0 101.317 0 99.375C0 97.4334 1.57406 95.8594 3.51562 95.8594H31.875C32.9084 95.8594 33.8895 96.3141 34.5574 97.1025C35.2254 97.8909 35.5127 98.9334 35.3428 99.953L34.3052 106.179L48.0605 103.428C49.103 103.219 50.1839 103.493 51.0007 104.174L60 111.674L68.9993 104.174C69.8161 103.494 70.8968 103.219 71.9395 103.428L85.6948 106.179L84.6572 99.9532C84.4873 98.9339 84.7744 97.8914 85.4426 97.1027C86.1108 96.3141 87.0916 95.8594 88.125 95.8594H116.484C118.426 95.8594 120 97.4334 120 99.375C120 101.317 118.426 102.891 116.484 102.891H92.2751L93.4678 110.047C93.6579 111.187 93.2756 112.347 92.4455 113.151C91.6153 113.954 90.4434 114.299 89.3105 114.072L72.2091 110.652L62.2507 118.951C61.5987 119.494 60.7995 119.766 60 119.766Z" fill="#C2C3CB"/>
</g>
<defs>
<clipPath id="clip0_68_2911">
<rect width="120" height="120" fill="white"/>
</clipPath>
</defs>
</svg>
